<svg 
 xmlns="http://www.w3.org/2000/svg"
 xmlns:xlink="http://www.w3.org/1999/xlink">
<path fill-rule="evenodd"  fill="rgb(215, 218, 221)"
 d="M31.342,40.737 C32.893,39.788 34.819,38.565 37.120,37.066 C39.421,35.567 41.598,33.745 43.649,31.599 C45.650,29.501 47.351,27.116 48.751,24.445 C50.153,21.774 50.853,18.815 50.853,15.570 C50.853,10.976 49.928,7.267 48.076,4.445 C46.226,1.625 43.149,0.214 38.846,0.214 C36.095,0.214 33.931,1.126 32.355,2.953 C30.779,4.779 29.991,6.743 29.991,8.844 C29.991,11.795 30.879,14.034 32.655,15.560 C34.431,17.086 36.870,17.849 39.972,17.849 L43.574,17.849 C43.273,20.442 42.748,22.560 41.998,24.207 C41.247,25.852 40.172,27.423 38.771,28.919 C37.270,30.514 35.795,31.798 34.343,32.771 C32.893,33.743 30.992,34.903 28.640,36.250 L31.342,40.737 ZM3.575,40.737 C5.127,39.788 7.053,38.565 9.354,37.066 C11.655,35.567 13.832,33.745 15.883,31.599 C17.884,29.501 19.586,27.116 20.986,24.445 C22.387,21.774 23.087,18.815 23.087,15.570 C23.087,10.976 22.162,7.267 20.310,4.445 C18.460,1.625 15.383,0.214 11.080,0.214 C8.329,0.214 6.165,1.126 4.589,2.953 C3.013,4.779 2.225,6.743 2.225,8.844 C2.225,11.795 3.113,14.034 4.889,15.560 C6.665,17.086 9.104,17.849 12.206,17.849 L15.808,17.849 C15.507,20.442 14.995,22.549 14.269,24.169 C13.545,25.789 12.456,27.374 11.005,28.919 C9.504,30.514 8.029,31.798 6.577,32.771 C5.127,33.743 3.226,34.903 0.874,36.250 L3.575,40.737 Z"/>
</svg>