<svg 
 xmlns="http://www.w3.org/2000/svg"
 xmlns:xlink="http://www.w3.org/1999/xlink">
<path fill-rule="evenodd"  fill="rgb(215, 218, 221)"
 d="M20.377,0.229 C18.826,1.179 16.899,2.402 14.599,3.900 C12.297,5.399 10.121,7.221 8.070,9.368 C6.069,11.466 4.367,13.851 2.967,16.522 C1.566,19.193 0.866,22.151 0.866,25.397 C0.866,29.991 1.791,33.699 3.643,36.521 C5.493,39.342 8.570,40.752 12.873,40.752 C15.624,40.752 17.788,39.841 19.364,38.013 C20.940,36.188 21.728,34.224 21.728,32.123 C21.728,29.171 20.839,26.933 19.064,25.406 C17.288,23.880 14.849,23.117 11.747,23.117 L8.145,23.117 C8.445,20.525 8.971,18.406 9.721,16.760 C10.472,15.115 11.547,13.544 12.948,12.048 C14.449,10.453 15.924,9.169 17.375,8.196 C18.826,7.224 20.727,6.064 23.079,4.717 L20.377,0.229 ZM48.143,0.229 C46.592,1.179 44.665,2.402 42.365,3.900 C40.063,5.399 37.887,7.221 35.836,9.368 C33.835,11.466 32.133,13.851 30.733,16.522 C29.332,19.193 28.632,22.151 28.632,25.397 C28.632,29.991 29.557,33.699 31.409,36.521 C33.259,39.342 36.336,40.752 40.639,40.752 C43.390,40.752 45.554,39.841 47.130,38.013 C48.706,36.188 49.494,34.224 49.494,32.123 C49.494,29.171 48.605,26.933 46.830,25.406 C45.054,23.880 42.615,23.117 39.513,23.117 L35.911,23.117 C36.211,20.525 36.724,18.418 37.450,16.797 C38.174,15.177 39.262,13.593 40.714,12.048 C42.215,10.453 43.690,9.169 45.141,8.196 C46.592,7.224 48.493,6.064 50.845,4.717 L48.143,0.229 Z"/>
</svg>