<?xml version="1.0" standalone="no"?>
<!DOCTYPE svg PUBLIC "-//W3C//DTD SVG 20010904//EN"
 "http://www.w3.org/TR/2001/REC-SVG-20010904/DTD/svg10.dtd">
<svg version="1.0" xmlns="http://www.w3.org/2000/svg"
 width="2200.000000pt" height="2200.000000pt" viewBox="0 0 2200.000000 2200.000000"
 preserveAspectRatio="xMidYMid meet">
<metadata>
Created by potrace 1.11, written by Peter Selinger 2001-2013
</metadata>
<g transform="translate(0.000000,2200.000000) scale(0.100000,-0.100000)"
fill="#000000" stroke="none">
<path d="M13230 20636 c0 -359 0 -365 -20 -363 -11 1 -20 5 -20 9 0 4 -9 5
-20 3 -11 -2 -20 -1 -20 3 0 4 -10 8 -22 8 -13 1 -43 6 -68 12 -73 17 -92 21
-160 33 -36 6 -72 14 -80 17 -8 3 -24 6 -35 7 -44 6 -91 13 -115 19 -35 8 -89
17 -130 22 -61 7 -155 21 -155 24 0 1 -13 3 -30 4 -16 2 -52 6 -80 10 -53 7
-128 15 -185 21 -19 2 -35 4 -35 5 0 1 -25 3 -55 5 -30 2 -55 4 -55 5 0 2 -68
8 -151 14 -28 1 -56 6 -62 10 -7 4 -12 2 -12 -4 0 -7 -6 -8 -17 -2 -10 5 -46
9 -81 8 -34 -1 -62 2 -62 5 0 7 -1109 3 -1180 -4 -38 -4 -174 -14 -270 -20
-14 -1 -28 -6 -32 -12 -5 -6 -8 -5 -8 3 0 7 -5 10 -10 7 -6 -4 -32 -9 -58 -11
-26 -2 -67 -7 -92 -9 -25 -3 -63 -8 -85 -10 -90 -10 -195 -24 -230 -31 -30 -6
-118 -17 -137 -18 -10 0 -18 -4 -18 -9 0 -4 -4 -6 -9 -3 -5 3 -44 -1 -88 -9
-43 -8 -94 -17 -113 -20 -19 -3 -53 -10 -74 -15 -22 -5 -44 -7 -48 -4 -4 3 -8
1 -8 -3 0 -5 -8 -9 -17 -9 -10 -1 -31 -4 -48 -8 -16 -4 -41 -9 -55 -10 -14 -2
-42 -8 -62 -14 -21 -6 -38 -8 -38 -5 0 3 -6 0 -13 -6 -8 -6 -17 -8 -20 -4 -4
3 -13 0 -22 -7 -8 -7 -15 -10 -15 -7 0 3 -28 -1 -62 -10 -35 -8 -73 -17 -85
-19 -12 -2 -34 -9 -48 -14 -14 -5 -25 -8 -25 -5 0 2 -18 -2 -40 -10 -22 -8
-41 -14 -43 -13 -1 0 -20 -5 -41 -10 -22 -6 -43 -9 -48 -6 -4 3 -8 0 -8 -6 0
-6 -4 -8 -10 -5 -5 3 -10 2 -10 -2 0 -5 -10 -9 -22 -10 -11 -1 -52 -11 -89
-23 -38 -11 -71 -20 -74 -20 -3 0 -21 -6 -40 -14 -19 -8 -35 -13 -35 -11 0 2
-15 -2 -34 -10 -18 -8 -36 -11 -40 -8 -3 4 -6 1 -6 -6 0 -7 -6 -11 -14 -8 -8
3 -17 3 -21 -1 -4 -4 -10 -7 -13 -8 -4 0 -19 -6 -35 -12 -15 -7 -38 -14 -51
-16 -14 -2 -33 -9 -44 -15 -11 -6 -22 -7 -26 -4 -3 3 -6 1 -6 -6 0 -7 -3 -10
-8 -7 -4 2 -23 -3 -42 -11 -19 -9 -38 -16 -42 -15 -4 1 -24 -6 -45 -15 -21 -9
-45 -18 -54 -19 -9 -2 -37 -13 -63 -24 -26 -11 -54 -20 -62 -20 -8 0 -14 -4
-14 -10 0 -5 -3 -9 -7 -9 -5 1 -11 0 -15 -1 -5 -1 -11 -3 -15 -5 -5 -1 -15 -5
-23 -8 -8 -4 -33 -13 -55 -21 -22 -8 -77 -30 -122 -50 -46 -19 -83 -32 -83
-28 0 4 -4 3 -8 -3 -9 -13 -79 -45 -97 -45 -8 0 -15 -4 -15 -8 0 -12 -89 -31
-96 -21 -3 5 -10 6 -16 3 -15 -10 -148 -10 -148 -1 0 4 -8 3 -18 -2 -10 -5
-24 -6 -32 -1 -8 5 -21 5 -29 1 -9 -5 -25 -5 -36 -1 -11 4 -34 4 -52 -1 -18
-4 -33 -3 -33 2 0 4 -6 6 -13 3 -22 -8 -87 -11 -87 -3 0 4 -16 3 -35 -1 -20
-4 -38 -4 -41 1 -3 6 -12 6 -21 0 -9 -5 -29 -5 -45 -1 -16 5 -28 5 -28 0 0 -5
-9 -6 -21 -2 -12 5 -43 5 -70 2 -27 -4 -49 -3 -49 2 0 5 -9 4 -19 -2 -12 -6
-29 -6 -42 -2 -12 5 -40 6 -61 2 -21 -4 -38 -4 -38 1 0 4 -13 4 -30 -1 -19 -5
-30 -5 -30 1 0 6 -5 7 -11 3 -7 -4 -25 -7 -42 -8 l-30 -1 0 -85 c-1 -59 -5
-87 -14 -90 -7 -3 -120 -5 -253 -4 l-240 1 0 -373 0 -373 -95 -71 c-52 -38
-98 -70 -101 -70 -4 0 -14 -8 -23 -18 -9 -10 -49 -42 -90 -72 -41 -30 -93 -69
-115 -88 -23 -18 -48 -39 -56 -45 -38 -30 -166 -133 -176 -142 -10 -10 -92
-80 -144 -125 -28 -25 -166 -147 -190 -170 -9 -8 -37 -34 -62 -57 -25 -23 -43
-44 -40 -47 3 -3 0 -6 -6 -6 -6 0 -83 -71 -169 -158 -232 -233 -385 -398 -534
-576 -13 -16 -31 -36 -39 -45 -14 -14 -67 -78 -120 -144 -8 -11 -20 -24 -25
-31 -6 -6 -26 -31 -45 -56 -19 -25 -37 -47 -40 -50 -3 -3 -32 -41 -65 -85 -33
-43 -65 -86 -72 -95 -61 -79 -111 -149 -116 -163 -3 -9 -11 -17 -16 -17 -5 0
-13 -9 -16 -20 -3 -11 -12 -26 -18 -33 -24 -26 -237 -342 -237 -352 0 -3 -15
-27 -32 -53 -39 -57 -37 -54 -131 -212 -80 -134 -153 -262 -200 -350 -83 -155
-115 -220 -109 -220 4 0 2 -4 -4 -8 -10 -6 -48 -81 -165 -327 -18 -38 -34 -74
-35 -80 -1 -5 -16 -40 -33 -77 -17 -36 -31 -71 -31 -77 0 -6 -4 -11 -8 -11 -5
0 -9 -6 -9 -12 0 -7 -9 -33 -20 -58 -11 -25 -37 -88 -58 -140 -52 -133 -51
-132 -66 -165 -7 -16 -13 -32 -14 -35 -4 -19 -18 -58 -25 -75 -11 -23 -100
-282 -105 -305 -2 -8 -4 -15 -5 -15 -1 0 -3 -8 -5 -18 -2 -10 -7 -26 -11 -35
-4 -9 -8 -19 -9 -22 -15 -49 -38 -125 -39 -134 -1 -6 -4 -15 -8 -21 -6 -10
-20 -71 -19 -80 1 -3 -6 -19 -14 -35 -9 -17 -13 -30 -11 -30 3 0 -1 -18 -9
-39 -7 -22 -11 -42 -8 -45 4 -3 1 -6 -6 -6 -7 0 -10 -4 -7 -9 3 -5 -1 -27 -9
-50 -8 -23 -12 -41 -10 -41 2 0 -2 -18 -10 -41 -8 -22 -14 -43 -14 -47 1 -4 0
-9 -1 -12 -2 -6 -7 -26 -14 -58 -3 -13 -7 -31 -10 -40 -3 -9 -8 -28 -10 -42
-3 -14 -12 -53 -19 -87 -8 -34 -12 -65 -9 -68 3 -3 -1 -5 -8 -5 -7 0 -11 -2
-8 -5 3 -3 -1 -36 -9 -73 -7 -37 -16 -82 -19 -101 -3 -18 -8 -42 -10 -52 -2
-11 -6 -27 -8 -38 -6 -27 -17 -91 -22 -126 -2 -16 -6 -41 -9 -55 -4 -14 -8
-41 -10 -60 -2 -19 -4 -35 -5 -35 -2 0 -8 -35 -14 -95 -3 -25 -8 -61 -11 -80
-3 -19 -7 -51 -10 -70 -2 -19 -6 -55 -10 -80 -16 -124 -26 -214 -29 -275 -1
-28 -4 -55 -7 -60 -2 -6 -4 -43 -4 -82 0 -40 -2 -73 -5 -73 -3 0 -6 -15 -7
-32 -2 -101 -13 -296 -17 -315 -3 -13 0 -25 5 -29 6 -3 6 -11 1 -17 -10 -15
-9 -607 1 -624 5 -8 3 -13 -3 -13 -6 0 -8 -5 -5 -10 4 -6 9 -63 11 -128 5
-120 11 -237 14 -237 0 0 3 -31 6 -70 8 -113 12 -170 14 -170 1 0 2 -19 4 -42
1 -23 5 -45 9 -49 4 -4 2 -13 -4 -21 -6 -7 -8 -13 -3 -13 5 0 10 -12 11 -27 2
-42 12 -125 17 -148 2 -11 7 -49 11 -85 4 -36 9 -74 11 -85 2 -11 6 -38 9 -60
3 -22 10 -62 16 -88 5 -27 7 -53 3 -58 -3 -5 0 -9 6 -9 6 0 8 -4 5 -10 -3 -6
-3 -15 1 -21 4 -7 9 -28 11 -48 4 -45 11 -86 13 -86 2 0 4 -13 5 -30 2 -16 4
-30 5 -30 1 0 3 -8 5 -18 2 -10 11 -55 20 -100 9 -45 18 -86 19 -92 1 -5 6
-16 10 -24 7 -10 5 -12 -3 -6 -9 5 -10 3 -2 -11 6 -11 17 -50 26 -89 9 -38 18
-79 20 -90 3 -11 7 -29 9 -40 4 -15 49 -185 70 -260 1 -5 8 -36 16 -67 7 -32
16 -58 19 -58 4 0 8 -11 9 -24 1 -14 23 -89 48 -168 25 -79 49 -152 51 -163 3
-11 11 -34 18 -50 8 -17 16 -42 18 -56 3 -15 10 -35 15 -45 6 -11 20 -48 32
-84 12 -36 28 -80 37 -99 8 -18 16 -39 17 -45 6 -34 154 -391 238 -573 12 -27
23 -54 24 -62 4 -20 44 -59 44 -43 0 7 5 10 10 7 6 -3 10 -2 10 3 0 7 43 33
60 36 3 1 12 6 20 11 8 5 33 19 55 31 22 11 65 33 95 49 30 16 58 28 62 27 5
-1 8 2 8 7 0 5 15 14 32 22 18 7 47 22 63 33 17 12 30 20 30 18 0 -6 40 12 46
20 3 5 12 11 20 12 8 2 120 55 249 118 268 131 367 178 381 178 5 0 9 4 9 10
0 5 3 9 7 8 5 -1 25 6 47 15 21 9 41 17 45 17 3 0 14 7 24 14 18 14 17 17 -8
73 -26 55 -46 102 -50 113 -1 3 -11 25 -22 50 -11 25 -37 88 -58 140 -20 52
-44 110 -52 129 -8 18 -19 45 -23 60 -5 14 -18 51 -30 81 -20 51 -35 95 -45
130 -3 8 -22 66 -44 127 -21 62 -36 113 -33 113 2 0 -2 7 -9 17 -8 9 -13 18
-12 19 3 4 2 7 -16 69 -7 22 -14 47 -15 55 -2 8 -5 22 -9 30 -7 19 -31 113
-32 122 0 3 -3 10 -8 14 -4 4 -7 20 -7 36 0 15 -5 28 -11 28 -5 0 -8 4 -5 9 3
4 1 23 -5 42 -11 37 -19 73 -22 104 -1 11 -5 22 -8 25 -4 3 -10 23 -13 45 -4
22 -11 55 -17 73 -6 18 -8 36 -5 39 3 3 1 13 -3 22 -5 9 -11 30 -14 46 -8 41
-15 80 -28 144 -13 65 -19 96 -24 136 -2 17 -4 30 -6 30 -1 0 -3 14 -4 30 -1
17 -5 41 -8 55 -7 27 -15 81 -22 145 -3 22 -7 54 -9 70 -11 65 -19 131 -19
158 0 15 -4 27 -9 27 -4 0 -3 11 2 25 5 14 6 25 2 25 -5 0 -8 10 -8 23 0 12
-4 58 -7 102 -16 187 -20 234 -21 298 0 37 -5 67 -10 67 -4 0 -3 6 3 14 8 9 8
16 2 20 -5 4 -7 19 -4 34 3 15 5 32 4 37 -6 40 -6 483 0 496 4 8 4 21 -1 29
-5 8 -6 18 -3 24 4 5 7 44 9 85 3 128 19 336 30 411 3 19 7 60 9 90 5 70 11
124 19 175 3 22 8 58 11 80 5 44 18 131 29 195 3 14 7 43 11 65 3 22 9 54 12
70 4 17 8 39 9 50 1 11 5 31 8 45 3 14 8 36 11 50 3 14 8 36 11 50 3 14 7 36
8 50 1 14 5 32 9 40 3 8 8 29 10 46 3 17 10 40 16 51 5 11 8 22 6 24 -2 3 7
49 21 104 14 55 27 107 29 115 2 8 4 17 5 20 1 3 3 10 5 15 1 6 3 12 4 15 3 7
9 28 16 65 3 16 10 34 16 41 5 6 7 13 4 16 -3 2 4 30 14 61 11 32 17 57 13 57
-3 0 -1 5 6 12 7 7 12 22 12 35 0 13 4 23 9 23 5 0 8 6 7 13 -1 14 55 189 63
197 4 3 6 10 6 15 0 15 57 179 65 190 5 6 9 13 9 17 2 11 11 38 24 73 7 17 12
32 12 35 3 21 18 50 26 50 6 0 8 4 5 8 -2 4 4 27 15 51 10 24 19 49 19 57 0 8
4 14 8 14 5 0 9 6 9 13 0 7 16 47 36 90 20 44 37 81 37 84 0 6 62 138 106 226
19 37 34 74 34 81 0 8 7 17 16 20 9 4 14 9 11 13 -7 6 42 103 58 115 6 4 6 8
1 8 -5 0 -4 6 2 13 5 6 28 46 50 87 42 80 162 290 199 349 13 20 30 51 40 69
9 17 20 32 25 32 4 0 8 5 8 10 0 8 83 144 107 175 4 6 42 60 83 120 41 61 80
116 87 123 7 7 13 16 13 20 0 4 10 19 23 34 12 14 40 52 62 84 22 31 50 68 62
81 13 13 23 28 23 33 0 6 3 10 8 10 4 0 23 23 42 50 19 27 38 50 43 50 4 0 7
6 7 14 0 8 4 16 8 18 5 2 44 46 88 98 43 52 83 100 89 106 5 7 35 40 65 74
121 137 183 203 376 395 206 204 304 298 304 291 0 -3 17 12 39 32 21 20 75
69 121 107 45 39 92 78 104 89 11 10 37 30 56 45 19 14 37 28 40 31 3 3 25 21
50 40 25 19 47 37 50 40 3 3 39 30 80 61 41 30 103 77 138 102 34 26 67 47 72
47 6 0 10 5 10 10 0 6 6 10 13 10 9 0 12 -110 11 -522 -1 -339 2 -527 8 -535
6 -7 8 -13 5 -13 -6 0 25 -92 48 -145 27 -62 45 -115 39 -115 -4 0 -2 -6 3
-12 6 -7 9 -21 7 -30 -2 -10 -5 -24 -7 -30 -1 -7 -6 -19 -10 -25 -5 -7 -5 -17
-2 -23 3 -5 2 -10 -2 -10 -5 0 -9 -8 -10 -17 -3 -53 -12 -113 -18 -122 -3 -6
-1 -11 6 -11 7 0 8 -4 2 -12 -9 -13 -9 -63 1 -108 14 -59 20 -96 18 -102 -1
-5 2 -8 8 -8 5 0 7 -7 4 -15 -4 -8 -2 -15 4 -15 5 0 13 -11 16 -25 9 -35 72
-103 118 -126 21 -11 38 -17 38 -13 0 4 6 2 13 -4 15 -12 127 -13 127 -1 0 5
7 6 15 3 8 -3 40 7 71 22 132 65 224 208 215 337 -1 18 -31 25 -31 6 0 -5 -4
-8 -9 -4 -5 3 -13 0 -16 -6 -4 -5 -13 -8 -20 -5 -17 6 -31 -11 -41 -49 -4 -17
-14 -41 -23 -55 -9 -13 -15 -27 -13 -30 5 -10 -59 -68 -95 -85 -39 -19 -133
-28 -133 -14 0 5 -8 9 -17 9 -30 0 -87 41 -129 92 -15 19 -35 79 -29 88 3 5 2
11 -3 14 -8 5 -8 46 2 118 8 54 39 109 82 143 55 44 136 124 171 170 30 39 77
133 91 179 3 11 7 212 9 446 2 234 4 507 6 608 1 100 -2 182 -7 182 -5 0 -3 7
4 15 7 9 8 15 2 15 -14 0 -3 40 12 41 6 1 94 2 196 3 l185 1 1 170 c1 94 2
175 3 181 0 6 40 30 89 54 48 24 89 47 90 52 2 4 10 8 18 8 8 0 50 18 94 40
44 22 80 37 80 33 0 -5 4 -3 8 2 18 25 65 32 223 32 91 0 172 4 179 8 9 6 11
4 5 -6 -7 -12 -6 -12 7 -1 9 7 18 9 21 5 6 -10 180 -9 196 1 6 4 11 4 11 -1 0
-9 201 -9 225 0 8 4 15 3 15 -1 0 -10 464 -7 480 3 9 6 11 4 5 -6 -7 -11 -6
-12 7 -2 8 7 18 10 21 6 10 -9 272 -7 287 2 9 6 11 4 5 -6 -7 -12 -6 -12 7 -1
9 7 18 9 21 5 6 -10 180 -9 196 1 6 4 11 4 11 -1 0 -9 201 -9 225 0 8 4 15 3
15 -1 0 -10 464 -7 480 3 9 6 11 4 5 -6 -7 -12 -6 -12 7 -1 9 7 18 9 21 5 6
-10 180 -9 196 1 6 4 11 4 11 -1 0 -9 201 -9 225 0 8 4 15 3 15 -1 0 -10 464
-7 480 3 9 6 11 4 5 -6 -7 -12 -6 -12 7 -1 9 7 18 9 21 5 6 -10 180 -9 196 1
6 4 11 4 11 -1 0 -9 201 -9 225 0 8 4 15 3 15 -1 0 -10 464 -7 480 3 9 6 11 4
5 -6 -7 -12 -6 -12 7 -1 9 7 18 9 21 5 6 -10 180 -9 196 1 6 4 11 4 11 -1 0
-9 201 -9 225 0 8 4 15 3 15 -1 0 -9 383 -8 398 2 7 4 12 3 12 -2 0 -6 9 -8
20 -5 22 6 22 0 21 -152 -1 -94 -4 -91 99 -89 76 1 90 -2 91 -15 0 -9 1 -2330
2 -5158 l2 -5142 -55 5 c-115 10 -153 15 -163 21 -6 4 -7 1 -2 -7 5 -9 4 -11
-3 -6 -6 4 -31 9 -54 11 -161 14 -302 25 -373 29 -16 0 -36 5 -42 9 -7 5 -13
4 -13 -1 0 -5 -12 -7 -27 -5 -39 5 -241 17 -493 29 -63 3 -120 6 -125 6 -9 1
-13 180 -5 198 1 3 1 10 0 15 -7 26 -5 217 2 222 5 2 5 9 1 16 -10 16 -10 227
0 227 4 0 5 6 0 12 -10 17 -11 138 -1 144 5 3 5 11 1 17 -10 16 -10 218 -1
224 5 2 5 9 1 16 -10 16 -10 227 0 227 4 0 5 6 0 13 -10 16 -10 457 0 464 4 2
4 10 0 16 -10 16 -10 218 -1 224 5 2 5 9 1 16 -10 16 -10 227 0 227 4 0 5 6 0
13 -10 16 -10 777 0 784 4 2 4 10 0 16 -10 16 -10 218 -1 224 5 2 5 9 1 16
-10 16 -10 227 0 227 4 0 5 6 0 13 -10 16 -10 777 0 784 4 2 4 10 0 16 -10 16
-10 218 -1 224 5 2 5 9 1 16 -10 16 -10 227 0 227 4 0 5 6 0 13 -10 16 -10
777 0 784 4 2 4 10 0 16 -10 16 -10 218 -1 224 5 2 5 9 1 16 -10 16 -10 227 0
227 4 0 5 6 0 13 -10 16 -10 457 0 464 4 2 4 10 0 16 -10 16 -10 218 -1 224 5
2 5 9 1 16 -10 16 -10 227 0 227 4 0 5 6 1 12 -11 18 -12 148 -1 148 5 0 5 6
-2 13 -8 10 -7 17 2 27 8 9 8 11 0 6 -6 -3 -13 -1 -15 6 -3 9 -52 12 -178 13
l-174 0 -1 38 c-1 21 2 40 7 43 5 3 5 11 1 17 -12 19 -11 77 1 77 8 0 8 3 1 8
-6 4 -11 21 -11 37 0 17 5 33 11 37 7 5 7 8 0 8 -6 0 -11 16 -11 35 0 19 5 35
11 35 6 0 7 3 0 8 -12 8 -15 72 -4 72 5 0 4 11 -1 25 -5 14 -6 25 -2 26 4 0
-2 4 -13 8 -11 5 -66 8 -123 7 -96 -2 -104 -4 -129 -28 l-26 -26 -1 -213 -1
-213 -47 -3 c-68 -5 -74 6 -74 121 l1 96 -47 0 -48 0 -1 -42 c-2 -180 -5 -186
-76 -172 l-48 9 0 77 c0 68 -3 82 -25 108 l-24 30 -28 -30 c-25 -27 -27 -36
-24 -98 2 -47 -2 -72 -12 -84 -18 -21 -71 -24 -94 -5 -17 13 -30 65 -19 72 8
5 6 85 -4 114 -3 12 -11 19 -16 16 -5 -4 -9 -1 -9 5 0 8 -6 8 -20 0 -11 -6
-20 -8 -20 -5 0 3 -8 1 -18 -4 -16 -8 -18 -22 -16 -105 l2 -96 -27 -1 c-27 -2
-82 -1 -91 0 -3 1 -5 47 -5 104 l0 102 -41 5 c-23 4 -45 1 -50 -5 -12 -13 -13
-155 -1 -155 5 0 4 -7 -3 -15 -10 -12 -10 -15 1 -15 32 -1 -28 -24 -66 -25
-63 -2 -64 -1 -64 88 1 118 0 129 -10 122 -5 -3 -12 -1 -16 4 -7 13 -65 -7
-66 -22 -4 -58 -3 -135 1 -132 4 2 4 -9 2 -26 -2 -16 -7 -30 -11 -30 -22 -5
-79 -7 -96 -4 -19 4 -21 12 -21 105 0 76 -4 104 -14 110 -8 5 -19 6 -25 2 -5
-3 -20 -5 -32 -3 -26 3 -25 7 -27 -119 l-1 -95 -60 1 -60 1 -2 89 c-1 76 -4
91 -22 105 -48 39 -81 -5 -81 -109 0 -78 -9 -92 -61 -92 -53 0 -61 16 -63 122
-1 89 -2 92 -26 98 -33 8 -57 2 -65 -18 -4 -10 -6 -56 -6 -103 2 -95 3 -94
-65 -98 -38 -1 -43 1 -51 26 -5 15 -9 62 -8 103 0 41 -4 78 -10 82 -19 14 -73
9 -79 -8 -3 -9 -6 -56 -6 -105 0 -82 -2 -89 -20 -90 -32 -2 -38 -4 -45 -11 -4
-4 -20 -1 -35 7 -25 13 -27 18 -26 74 1 35 -3 61 -9 61 -7 0 -7 3 0 8 13 9 12
49 0 61 -17 16 -59 17 -75 1 -12 -12 -16 -38 -15 -107 0 -100 0 -101 -62 -98
-18 1 -33 -3 -33 -9 0 -6 -9 2 -19 18 -13 20 -17 35 -11 46 5 9 4 23 -2 33 -6
12 -6 22 2 32 7 8 7 15 1 19 -10 7 -9 25 2 44 5 7 4 12 -2 12 -6 0 -10 5 -9
12 2 8 -8 11 -27 10 -25 -3 -64 -8 -72 -11 -1 -1 2 -12 7 -26 5 -14 6 -25 2
-25 -4 0 -7 -35 -7 -77 l0 -77 -57 -1 c-51 0 -57 2 -61 23 -2 12 0 25 5 28 5
3 6 13 3 23 -11 25 -12 71 -2 71 4 0 5 6 1 12 -5 7 -9 21 -9 31 -2 26 -24 37
-51 27 -12 -5 -25 -6 -28 -3 -15 15 -28 -75 -13 -94 5 -8 6 -13 0 -13 -5 0 -9
-9 -9 -20 0 -11 4 -20 8 -20 5 0 2 -14 -4 -31 -7 -17 -15 -30 -18 -29 -3 1
-16 -3 -31 -8 -19 -8 -30 -6 -49 8 -22 16 -25 27 -26 92 -2 118 -2 116 -26
120 -13 2 -35 -3 -49 -10 -26 -12 -26 -14 -25 -107 1 -103 2 -101 -59 -104
-54 -2 -60 9 -62 116 l-1 98 -47 3 c-43 2 -47 1 -42 -18 3 -11 2 -20 -2 -20
-8 0 -6 -109 3 -117 3 -3 -4 -19 -15 -34 -15 -22 -29 -29 -53 -29 -43 0 -71
21 -63 49 3 12 0 21 -6 21 -7 0 -7 3 -1 9 5 6 7 40 4 78 -5 62 -7 67 -27 66
-13 0 -34 -1 -47 -2 -23 -1 -25 -5 -28 -66 -1 -36 1 -65 5 -65 5 0 5 -6 0 -12
-4 -7 -6 -25 -5 -39 3 -29 -15 -39 -73 -39 -42 0 -51 21 -50 125 0 50 -3 93
-7 96 -5 3 -27 3 -50 0 l-42 -6 2 -102 c1 -61 -2 -103 -8 -104 -6 -1 -32 -2
-60 -3 -43 -1 -50 2 -51 19 -1 11 -2 58 -3 104 -1 81 -2 85 -26 91 -34 9 -62
-2 -67 -26 -2 -10 -4 -54 -4 -96 0 -85 -4 -91 -59 -95 -59 -4 -64 5 -64 109
-1 51 -5 96 -11 100 -20 15 -74 8 -83 -9 -5 -10 -8 -57 -7 -105 1 -97 6 -90
-70 -92 -37 -1 -41 1 -51 34 -7 19 -9 39 -6 44 6 11 5 70 -2 101 -2 11 -5 23
-5 28 -1 9 -63 9 -76 -1 -6 -4 -11 -42 -10 -87 1 -123 -11 -137 -102 -119 -27
5 -29 9 -27 47 1 23 3 44 4 47 1 3 1 10 0 15 -1 6 -4 29 -6 53 -4 50 -10 63
-27 57 -7 -2 -25 -6 -41 -10 -22 -5 -27 -10 -23 -25 3 -11 1 -20 -4 -20 -6 0
-5 -8 1 -20 7 -12 7 -20 1 -20 -5 0 -7 -10 -4 -22 8 -35 4 -73 -11 -96 -8 -14
-89 -13 -102 1 -4 4 -8 44 -10 89 -1 46 -3 91 -3 101 -1 10 -5 16 -10 12 -5
-3 -12 -1 -16 5 -4 6 -12 7 -18 3 -7 -4 -21 -8 -32 -8 -19 0 -20 -7 -20 -103
0 -56 -2 -102 -5 -103 -8 -1 -72 -2 -95 0 -19 1 -21 7 -20 96 1 53 -1 99 -5
104 -3 5 -22 10 -42 13 -20 2 -35 1 -32 -3 2 -4 -2 -9 -9 -12 -8 -3 -12 -28
-11 -78 1 -122 -12 -141 -86 -120 l-25 7 -2 224 c-1 124 -2 228 -2 232 -1 4
-65 7 -143 5 l-143 -2 -2 -233 c0 -129 -4 -236 -6 -239 -3 -3 -84 -5 -179 -6
l-173 0 0 -3955 c0 -2175 -2 -3958 -5 -3962 -5 -8 -87 -31 -155 -44 -5 -1 -16
-5 -23 -10 -7 -4 -16 -5 -19 -2 -3 3 -12 1 -20 -5 -7 -6 -13 -8 -13 -5 0 4 -8
2 -17 -3 -10 -5 -32 -11 -50 -14 -17 -3 -36 -8 -41 -11 -8 -5 -17 -7 -86 -21
-16 -3 -34 -8 -38 -11 -5 -3 -24 -8 -41 -11 -18 -3 -40 -9 -49 -14 -10 -5 -18
-7 -18 -3 0 3 -6 1 -13 -5 -8 -6 -17 -8 -20 -5 -3 3 -12 2 -19 -2 -14 -9 -15
-9 -62 -19 -16 -3 -37 -10 -48 -16 -10 -5 -18 -7 -18 -3 0 3 -7 0 -17 -7 -9
-8 -19 -13 -22 -11 -7 3 -102 -18 -116 -27 -5 -3 -14 -6 -20 -8 -5 -1 -24 -6
-42 -11 -17 -6 -34 -8 -37 -4 -3 3 -6 0 -6 -5 0 -6 -8 -10 -17 -8 -10 1 -22
-1 -28 -4 -5 -4 -30 -13 -55 -20 -25 -8 -52 -16 -60 -19 -8 -3 -18 -6 -22 -7
-5 -2 -11 -4 -15 -5 -5 -1 -11 -2 -15 -1 -4 0 -28 -8 -53 -19 -25 -11 -49 -20
-53 -20 -16 -1 -88 -21 -107 -30 -18 -8 -206 -69 -230 -75 -5 -1 -18 -5 -27
-8 -23 -9 -52 -18 -55 -18 -2 0 -33 -11 -70 -25 -38 -14 -84 -30 -103 -35 -19
-6 -39 -12 -45 -13 -5 -2 -14 -4 -20 -6 -5 -1 -15 -6 -22 -11 -6 -6 -23 -12
-38 -15 -15 -3 -44 -13 -65 -24 -21 -11 -40 -16 -44 -13 -3 3 -13 0 -22 -8
-10 -8 -18 -13 -18 -11 -1 4 -32 -6 -61 -19 -20 -9 -151 -57 -170 -63 -5 -2
-23 -8 -38 -14 -16 -7 -34 -12 -41 -12 -6 0 -16 -4 -22 -8 -5 -5 -28 -15 -51
-22 -24 -7 -43 -18 -43 -23 0 -6 -3 -8 -6 -4 -3 3 -27 -4 -52 -15 -26 -11 -55
-21 -64 -23 -10 -2 -32 -11 -50 -19 -18 -8 -85 -36 -148 -61 -63 -25 -127 -52
-142 -61 -15 -8 -29 -14 -30 -14 -2 1 -16 -3 -31 -9 -16 -6 -33 -11 -38 -11
-5 0 -9 -4 -9 -10 0 -5 -3 -9 -8 -9 -4 1 -10 0 -14 -1 -5 -1 -11 -3 -15 -4 -5
-1 -24 -9 -43 -18 -34 -15 -70 -30 -80 -32 -3 -1 -16 -8 -30 -16 -14 -8 -27
-15 -30 -15 -3 -1 -18 -7 -33 -13 -16 -7 -34 -12 -42 -12 -7 0 -15 -5 -17 -11
-2 -5 -10 -11 -18 -13 -8 -1 -26 -8 -40 -16 -14 -8 -28 -14 -31 -15 -13 0
-225 -100 -230 -108 -3 -5 -9 -8 -13 -7 -12 2 -76 -24 -76 -32 0 -4 -5 -8 -10
-8 -6 0 -53 -20 -104 -45 -52 -25 -98 -45 -101 -45 -4 0 -19 -9 -35 -20 -15
-11 -29 -17 -32 -14 -3 2 -11 -2 -18 -11 -7 -8 -17 -15 -23 -15 -11 0 -224
-106 -407 -203 -52 -28 -108 -57 -125 -65 -16 -9 -33 -20 -37 -26 -4 -6 -8 -8
-8 -3 0 4 -17 -3 -37 -16 -21 -12 -60 -34 -88 -47 -27 -14 -55 -30 -62 -37 -7
-6 -23 -15 -36 -19 -12 -3 -33 -14 -47 -24 -14 -9 -52 -32 -85 -49 -95 -52
-149 -84 -163 -98 -8 -7 -18 -11 -23 -8 -5 4 -9 1 -9 -5 0 -6 -4 -8 -10 -5 -5
3 -10 2 -10 -3 0 -5 -12 -15 -27 -23 -16 -7 -47 -26 -70 -42 -24 -15 -43 -25
-43 -22 0 4 -7 -1 -16 -9 -8 -9 -20 -14 -25 -11 -5 4 -9 -22 -9 -59 0 -36 3
-66 6 -66 9 0 98 21 114 27 8 4 18 6 22 5 3 -1 30 6 60 14 29 9 64 18 78 20
14 3 33 7 42 10 9 3 25 7 35 9 10 2 45 11 79 19 34 8 72 17 85 20 13 3 62 15
109 26 89 23 109 27 150 35 59 11 71 14 79 19 5 3 24 8 42 11 19 2 45 7 59 10
14 4 30 7 35 8 6 2 15 5 20 8 6 4 18 5 28 4 9 -2 17 0 17 4 0 4 8 7 18 7 19 1
58 8 115 23 20 5 37 7 37 4 0 -3 6 -1 13 5 6 6 14 10 17 10 5 -1 58 8 100 18
14 3 39 7 57 9 18 2 36 6 41 9 5 3 19 7 33 10 13 2 44 9 69 16 25 6 61 12 80
13 19 2 41 6 47 10 7 5 27 10 45 12 18 2 44 7 58 10 14 4 41 9 60 11 19 3 42
8 50 11 15 6 27 9 70 16 14 2 41 8 60 11 19 4 42 8 50 10 8 1 29 5 45 9 17 4
44 9 60 12 17 3 44 9 60 12 17 3 40 6 53 7 12 0 22 4 22 9 0 4 3 6 8 3 8 -4
137 18 137 24 0 1 11 3 25 5 14 1 41 6 60 10 19 3 49 8 65 9 17 2 37 6 45 9
19 8 128 27 151 27 9 0 31 -23 50 -55 18 -30 37 -55 41 -55 4 0 8 -5 8 -11 0
-10 172 -261 197 -287 7 -7 13 -17 13 -20 0 -4 10 -18 23 -32 12 -14 34 -43
49 -65 15 -22 39 -53 53 -69 14 -16 25 -32 25 -35 0 -3 14 -22 31 -41 17 -19
45 -54 62 -77 17 -24 34 -43 39 -43 4 0 8 -6 8 -14 0 -8 3 -16 8 -18 6 -3 54
-58 157 -183 36 -44 79 -93 144 -164 12 -14 50 -56 82 -92 33 -37 94 -103 137
-147 42 -44 105 -110 140 -146 35 -36 64 -66 66 -66 1 0 47 -44 102 -97 139
-136 298 -280 394 -359 19 -16 47 -40 62 -54 15 -14 33 -29 40 -35 28 -22 123
-100 128 -105 4 -5 113 -91 158 -125 7 -5 22 -18 33 -27 10 -10 22 -18 26 -18
5 0 22 -14 40 -30 18 -17 37 -30 42 -30 6 0 11 -3 11 -7 0 -5 21 -21 45 -38
25 -16 45 -33 45 -37 0 -5 6 -8 14 -8 8 0 16 -3 18 -7 6 -15 492 -343 508
-343 4 0 10 -4 12 -8 2 -5 29 -24 62 -43 32 -19 75 -44 95 -57 20 -13 44 -25
54 -29 9 -3 17 -9 17 -13 0 -8 51 -34 63 -32 4 1 7 -3 7 -8 0 -6 6 -10 14 -10
7 0 19 -7 26 -15 7 -8 21 -15 31 -15 11 0 19 -4 19 -9 0 -5 10 -13 23 -17 12
-4 24 -9 27 -13 3 -3 14 -11 25 -17 40 -22 171 -92 235 -125 36 -18 68 -38 72
-44 4 -5 8 -7 8 -3 0 3 62 -24 138 -62 75 -37 160 -78 187 -90 28 -12 75 -33
105 -47 78 -35 106 -48 180 -78 36 -14 79 -32 95 -40 68 -30 365 -144 390
-150 5 -1 24 -7 40 -14 58 -24 294 -101 310 -101 8 0 15 -4 15 -8 0 -4 8 -9
18 -10 48 -6 57 -7 62 -13 4 -5 93 -33 140 -44 8 -2 17 -4 20 -5 3 -1 9 -2 14
-1 4 1 13 -3 20 -8 6 -5 24 -12 39 -15 15 -3 38 -8 52 -11 13 -3 35 -9 49 -15
13 -5 27 -6 30 -3 3 4 6 1 6 -6 0 -7 3 -10 8 -8 4 3 48 -6 97 -19 50 -13 104
-27 120 -30 41 -7 157 -35 175 -41 8 -3 22 -7 30 -8 57 -10 108 -18 125 -19
11 0 22 -4 25 -8 3 -4 21 -9 40 -12 19 -2 46 -7 59 -10 20 -4 58 -10 131 -20
9 -1 20 -5 25 -8 6 -3 22 -5 38 -4 15 1 27 -1 27 -4 0 -3 15 -7 33 -8 18 -1
44 -5 57 -7 34 -7 121 -18 143 -19 9 0 17 -3 17 -6 0 -3 12 -6 28 -6 63 -3 98
-8 115 -16 11 -6 17 -5 17 2 0 6 5 8 11 4 6 -3 30 -8 52 -11 72 -7 102 -11
102 -13 0 -2 130 -12 187 -14 32 0 58 -4 58 -7 0 -3 27 -5 61 -4 33 0 62 -2
64 -5 2 -3 37 -5 79 -5 42 0 76 -3 76 -7 0 -4 14 -3 30 2 17 5 30 5 30 1 0
-12 798 -12 805 -1 4 6 13 7 23 1 9 -5 19 -10 22 -12 3 -1 15 3 28 10 12 6 22
8 22 2 0 -5 14 -6 33 -2 17 4 62 7 99 6 38 0 68 2 68 5 0 3 28 6 63 7 63 2
149 9 222 18 22 2 63 7 90 9 63 7 127 14 185 21 25 3 63 8 85 10 22 2 51 6 65
9 33 6 91 15 148 22 26 3 49 8 52 12 3 4 21 8 40 8 35 1 79 8 133 18 52 11 82
16 122 22 22 4 42 9 45 13 3 3 14 6 25 7 37 2 112 16 205 39 36 9 79 19 95 21
17 3 37 7 45 10 8 3 24 8 35 10 11 2 60 15 110 28 49 13 93 22 97 19 5 -2 8 1
8 8 0 7 3 10 6 6 3 -3 23 1 45 8 22 8 40 14 42 14 10 -3 77 15 77 20 0 4 8 8
18 9 21 2 57 10 57 12 0 1 7 3 15 5 8 1 42 12 75 23 33 11 72 22 87 26 15 3
40 11 55 18 15 6 34 13 41 15 6 1 18 5 25 6 6 2 19 7 27 10 25 10 104 38 120
41 8 2 42 14 75 26 33 13 69 26 80 30 11 4 23 7 26 6 3 0 13 5 22 13 10 7 17
11 17 7 0 -3 25 5 56 19 31 14 63 25 70 25 8 0 14 5 14 12 0 6 3 9 6 6 3 -4
24 2 47 12 45 19 79 32 87 35 3 1 21 8 40 17 19 8 64 28 100 43 36 15 85 37
110 48 25 12 47 22 50 22 3 1 31 13 62 28 31 15 62 27 67 27 6 0 11 4 11 9 0
5 14 12 30 16 17 4 30 11 30 16 0 6 5 7 10 4 6 -3 10 -1 10 6 0 7 3 9 6 6 4
-3 26 5 49 18 23 14 45 22 48 18 4 -3 7 -2 7 3 0 5 20 18 45 29 25 11 45 23
45 26 0 7 43 20 56 18 4 0 10 3 13 8 11 16 98 62 105 56 3 -3 6 -2 6 4 0 6 8
13 18 17 9 3 49 24 87 46 39 23 78 44 88 47 9 3 17 9 17 14 0 5 4 9 10 9 5 0
47 23 94 50 47 28 89 50 95 50 5 0 11 4 13 8 3 9 92 67 141 91 15 8 27 18 27
23 0 4 5 8 10 8 10 0 90 49 100 61 3 3 10 8 15 10 6 2 57 36 113 74 57 39 111
75 120 80 9 6 19 12 22 15 3 3 30 23 60 45 30 22 57 43 58 47 2 5 8 8 12 8 10
0 222 159 232 174 4 6 8 7 8 2 0 -5 11 3 24 17 13 14 27 23 30 20 3 -4 6 -1 6
5 0 6 9 14 20 17 11 4 18 10 15 15 -3 5 4 11 15 15 11 3 20 10 20 15 0 5 8 11
18 14 9 3 34 22 54 41 20 19 39 35 42 35 3 0 14 8 24 17 10 10 43 39 73 65
124 106 161 138 264 232 97 88 365 347 399 384 12 13 53 56 91 96 39 40 106
112 150 161 44 49 90 100 103 113 12 14 40 46 61 71 22 25 49 57 61 71 39 46
132 159 157 190 25 32 124 157 153 192 17 20 30 39 30 43 0 3 9 16 21 28 12
12 28 33 38 47 9 14 42 60 73 102 32 42 58 80 58 83 0 4 6 12 13 19 6 7 55 77
107 155 l95 142 40 -5 c38 -5 56 -9 115 -21 14 -3 40 -8 59 -11 58 -10 71 -13
80 -19 5 -3 13 -1 16 5 5 7 11 8 19 1 6 -5 27 -13 46 -16 19 -3 50 -10 69 -15
19 -5 38 -7 42 -4 5 3 17 1 26 -4 10 -6 38 -13 63 -16 25 -4 54 -8 65 -11 11
-2 45 -9 75 -14 30 -6 66 -14 80 -17 14 -3 35 -7 48 -10 61 -12 74 -14 100
-20 15 -3 36 -7 47 -9 20 -3 44 -9 100 -22 17 -4 35 -7 40 -8 6 -1 12 -3 15
-4 3 -2 14 -4 25 -6 57 -8 104 -17 135 -25 45 -11 87 -20 124 -26 16 -2 45 -8
65 -13 20 -6 47 -12 61 -15 26 -6 153 -34 158 -35 1 -1 3 -1 5 -2 1 0 10 -2
21 -4 10 -2 39 -9 65 -15 25 -6 56 -13 69 -15 12 -3 32 -7 45 -11 12 -3 33 -7
47 -10 14 -3 41 -9 60 -14 19 -5 46 -11 60 -14 14 -3 54 -13 90 -21 36 -9 74
-18 85 -20 33 -7 159 -36 170 -39 6 -2 13 -4 17 -6 11 -3 130 -31 151 -35 9
-2 21 -6 26 -9 5 -3 25 -8 46 -12 20 -3 58 -12 83 -20 26 -7 50 -14 55 -14 4
0 7 27 7 60 0 57 -2 61 -32 80 -18 10 -38 24 -45 29 -7 6 -15 11 -18 11 -4 0
-44 23 -91 50 -47 28 -89 50 -93 50 -5 0 -11 4 -13 8 -4 9 -143 88 -144 81 0
-2 -8 4 -18 13 -10 10 -23 18 -31 18 -7 0 -15 3 -17 8 -1 4 -19 15 -38 24 -19
10 -75 40 -125 68 -49 27 -115 62 -145 77 -30 16 -57 30 -60 33 -11 11 -516
265 -685 345 -55 26 -127 59 -160 75 -113 54 -257 120 -260 120 -2 0 -32 13
-67 29 -35 16 -97 43 -138 61 -41 18 -94 41 -117 51 -41 18 -92 40 -103 44
-10 4 -46 18 -87 36 -24 10 -43 15 -43 11 0 -4 -4 -2 -8 4 -7 11 -238 106
-259 107 -7 0 -13 4 -13 9 0 4 -3 7 -7 6 -5 -1 -25 6 -47 15 -21 9 -42 17 -46
17 -4 0 -21 7 -39 16 -17 9 -37 17 -44 18 -12 2 -113 39 -152 57 -11 5 -72 27
-135 50 -63 22 -129 47 -146 55 -17 7 -40 15 -50 17 -16 2 -52 15 -134 45 -21
7 -22 8 -52 16 -16 5 -28 12 -28 18 0 5 -4 7 -8 4 -7 -4 -156 41 -232 71 -8 3
-20 7 -25 8 -19 5 -150 48 -170 56 -11 5 -29 11 -40 12 -11 2 -27 7 -35 10 -8
4 -52 18 -97 31 -45 14 -90 29 -100 34 -10 5 -24 7 -31 5 -7 -3 -18 -1 -25 5
-11 8 -56 24 -82 27 -5 1 -17 4 -25 7 -52 18 -94 30 -117 34 -15 3 -30 9 -33
13 -3 4 -14 7 -25 7 -11 0 -34 5 -50 11 -66 24 -138 43 -146 37 -5 -3 -9 -1
-9 3 0 5 -8 9 -18 10 -25 2 -46 7 -52 13 -5 5 -197 56 -250 67 -14 2 -32 7
-40 10 -17 7 -24 9 -60 17 -14 3 -52 12 -85 21 -33 8 -71 18 -85 21 -13 3 -78
19 -145 35 -66 16 -129 31 -140 33 -11 2 -31 6 -45 10 -26 6 -36 8 -130 27
-30 6 -62 14 -70 17 -20 7 -29 9 -65 16 -16 3 -41 8 -55 12 -14 3 -32 6 -40 6
-8 0 -22 2 -30 5 -8 3 -28 7 -45 9 -48 6 -77 11 -120 19 -22 5 -51 9 -65 11
-14 1 -25 3 -25 4 0 3 -38 9 -68 12 -16 1 -31 6 -34 11 -4 7 -8 10184 -4
10324 l1 22 38 -22 c20 -12 39 -25 40 -29 2 -4 8 -8 13 -8 7 0 143 -87 184
-117 69 -52 85 -63 94 -63 6 0 11 -3 11 -7 0 -5 27 -25 60 -47 33 -21 60 -42
60 -47 0 -5 4 -9 10 -9 9 0 126 -85 140 -101 3 -3 12 -10 21 -15 9 -5 34 -23
55 -41 21 -18 80 -65 129 -105 50 -40 95 -77 101 -83 6 -6 31 -27 54 -46 23
-18 54 -45 69 -59 14 -14 67 -61 116 -105 91 -81 428 -415 520 -516 71 -78
193 -217 240 -273 22 -27 45 -54 50 -60 6 -6 41 -49 78 -96 38 -47 74 -92 80
-100 7 -8 23 -31 37 -50 13 -19 27 -37 30 -40 11 -8 140 -186 221 -303 97
-141 108 -159 115 -179 4 -10 10 -18 14 -18 5 0 12 -9 15 -20 3 -11 12 -26 18
-32 7 -7 33 -46 57 -87 159 -264 212 -358 327 -580 23 -46 48 -90 54 -97 6 -8
9 -14 6 -14 -3 0 19 -49 49 -110 30 -60 54 -112 54 -115 0 -3 16 -39 35 -79
19 -41 35 -77 35 -80 0 -3 12 -31 26 -63 27 -59 41 -92 54 -128 5 -11 15 -36
23 -55 9 -19 19 -47 22 -63 4 -15 11 -30 16 -33 5 -3 9 -14 9 -25 0 -10 4 -27
9 -37 21 -41 45 -107 54 -144 1 -7 5 -17 8 -23 8 -13 40 -111 43 -130 1 -8 5
-18 9 -21 4 -4 7 -13 7 -20 0 -7 5 -25 12 -41 6 -15 13 -37 15 -48 2 -11 6
-27 10 -35 7 -18 11 -30 16 -50 6 -28 38 -135 44 -150 3 -8 5 -18 5 -23 -1 -4
4 -23 12 -42 8 -19 13 -35 11 -35 -2 0 1 -15 6 -32 6 -18 12 -42 14 -53 6 -23
11 -46 23 -95 8 -33 10 -41 17 -65 4 -10 17 -88 17 -92 -1 -2 4 -17 9 -35 6
-18 12 -46 14 -63 3 -16 8 -41 11 -55 6 -24 13 -70 16 -97 1 -7 4 -13 7 -13 4
0 6 -11 6 -25 -1 -14 4 -54 12 -90 7 -35 15 -81 17 -102 3 -21 7 -49 10 -63 8
-43 34 -242 40 -315 3 -22 7 -60 10 -85 3 -25 8 -85 12 -135 3 -49 8 -110 10
-135 21 -251 22 -1025 1 -1046 -3 -3 -2 -16 3 -29 5 -13 6 -26 2 -30 -4 -3 -7
-18 -8 -33 -1 -15 -5 -67 -9 -117 -4 -49 -7 -99 -7 -110 1 -11 -4 -23 -11 -27
-9 -6 -9 -8 1 -8 7 0 11 -4 7 -9 -3 -6 -7 -34 -10 -63 -2 -29 -6 -64 -9 -78
-2 -14 -7 -52 -11 -85 -3 -33 -8 -69 -10 -80 -3 -11 -7 -40 -10 -65 -2 -25 -7
-58 -10 -75 -3 -16 -7 -43 -10 -60 -3 -16 -7 -41 -10 -55 -6 -31 -17 -100 -18
-117 0 -7 -3 -13 -6 -13 -3 0 -7 -10 -8 -22 -5 -74 -7 -88 -13 -88 -4 0 -6
-10 -6 -22 1 -13 0 -27 -3 -33 -3 -5 -7 -19 -8 -29 -2 -11 -10 -49 -19 -85 -9
-37 -17 -75 -20 -86 -2 -12 -22 -90 -44 -175 -23 -85 -43 -162 -45 -170 -2 -8
-4 -15 -5 -15 -1 0 -3 -7 -5 -15 -1 -8 -9 -35 -16 -60 -7 -25 -13 -48 -15 -52
-1 -5 -3 -10 -4 -13 -1 -3 -4 -9 -5 -15 -1 -5 -3 -11 -5 -12 -1 -2 -3 -10 -5
-19 -5 -29 -136 -410 -157 -458 -11 -25 -21 -53 -23 -61 -2 -8 -9 -28 -16 -45
-7 -16 -12 -33 -11 -37 1 -5 -3 -8 -10 -8 -6 0 -8 -3 -5 -7 4 -3 0 -17 -8 -30
-9 -13 -13 -23 -10 -23 2 0 -11 -34 -30 -76 -19 -42 -35 -82 -35 -89 0 -7 -7
-18 -15 -25 -8 -7 -12 -17 -9 -22 4 -6 2 -13 -2 -17 -9 -5 -49 -88 -49 -101 0
-3 -4 -11 -9 -18 -8 -13 18 -41 40 -42 5 0 30 -10 55 -22 24 -12 47 -21 52
-20 4 1 7 -3 7 -9 0 -5 5 -7 10 -4 6 3 10 1 10 -5 0 -6 5 -8 10 -5 5 3 10 1
10 -6 0 -7 3 -10 6 -6 4 3 25 -4 48 -17 22 -12 44 -23 49 -24 4 -1 71 -32 150
-70 78 -38 157 -75 175 -83 17 -8 32 -18 32 -22 0 -5 5 -5 10 -2 6 3 10 1 10
-5 0 -6 4 -9 9 -6 5 4 11 3 13 -1 1 -5 73 -43 158 -86 158 -78 283 -144 310
-162 8 -5 17 -10 20 -11 13 -2 46 -18 50 -24 9 -12 69 -38 74 -32 3 3 6 12 6
20 0 9 6 23 14 31 8 9 16 25 18 36 1 11 7 23 11 26 5 3 10 12 11 20 2 8 13 36
24 62 12 27 22 53 22 58 0 5 5 9 10 9 6 0 10 6 10 14 0 12 19 60 56 143 8 17
14 33 14 36 0 2 8 22 17 43 9 22 17 41 18 44 1 3 7 18 13 33 7 15 15 39 18 52
3 14 11 25 17 25 6 0 8 3 4 6 -3 4 0 19 9 35 8 16 12 29 10 29 -3 0 3 20 14
45 11 25 19 46 19 48 0 1 2 9 5 17 42 109 107 306 108 328 1 6 6 12 11 12 6 0
8 3 4 6 -3 4 0 21 7 38 7 17 13 34 14 39 1 12 33 118 47 157 7 19 13 38 13 43
1 16 15 73 20 82 7 11 11 27 14 62 1 13 6 23 10 23 4 0 7 3 6 8 -1 4 6 39 16
78 9 38 19 79 21 90 2 10 4 19 6 19 1 0 3 9 5 20 1 11 10 49 19 85 9 36 19 79
22 95 7 42 11 60 13 63 2 1 4 11 5 22 1 11 3 21 5 23 2 3 8 33 14 72 3 17 8
44 12 60 4 17 7 38 8 48 0 9 3 17 6 17 4 0 6 10 5 23 -1 12 0 27 4 32 3 6 6
17 7 25 2 8 5 33 8 55 4 22 9 58 11 79 3 22 10 45 16 53 9 10 8 13 0 13 -7 0
-10 4 -7 8 6 9 15 59 21 107 5 39 14 101 21 145 3 19 7 55 10 80 2 24 6 62 9
85 8 58 15 131 30 320 3 39 7 93 10 120 25 273 25 1016 -1 1325 -3 36 -7 92
-9 125 -2 33 -4 60 -5 60 -1 0 -3 25 -5 55 -4 57 -11 135 -21 205 -3 22 -7 58
-9 80 -4 42 -9 76 -25 190 -17 119 -21 149 -24 165 -8 44 -19 107 -21 120 -1
8 -6 35 -10 60 -4 25 -9 54 -12 65 -2 11 -6 31 -8 45 -4 22 -46 224 -61 290
-3 14 -7 34 -9 45 -2 11 -12 56 -23 100 -12 44 -23 91 -26 105 -3 14 -10 43
-16 65 -6 22 -13 50 -15 61 -1 12 -7 30 -13 40 -5 11 -8 27 -7 37 2 9 0 17 -4
17 -4 0 -8 6 -8 13 -1 6 -10 42 -21 79 -10 37 -17 70 -14 73 3 3 1 5 -4 5 -5
0 -10 8 -11 18 -1 9 -16 60 -33 112 -17 52 -32 101 -34 110 -2 8 -6 22 -9 30
-21 49 -54 160 -49 164 3 4 1 6 -5 6 -9 0 -40 98 -35 113 1 4 -2 7 -6 7 -5 0
-20 33 -33 73 -13 39 -27 74 -31 75 -5 2 -8 14 -8 27 0 13 -5 27 -10 30 -6 4
-8 10 -5 15 3 4 -2 13 -10 20 -8 7 -15 23 -15 36 0 13 -5 24 -11 24 -5 0 -8 4
-5 8 3 5 -1 19 -7 33 -7 13 -28 62 -47 109 -19 47 -38 89 -42 95 -4 5 -8 17
-8 26 0 10 -3 19 -7 21 -5 2 -23 39 -42 83 -39 91 -292 607 -301 615 -4 3 -27
43 -51 90 -24 47 -50 91 -56 98 -7 7 -16 24 -19 38 -3 13 -10 24 -15 24 -5 0
-9 6 -9 14 0 8 -3 16 -7 18 -5 2 -17 21 -29 43 -12 22 -45 78 -74 125 -29 47
-58 95 -64 107 -6 13 -14 23 -18 23 -5 0 -8 7 -8 15 0 8 -4 15 -10 15 -5 0
-10 5 -10 10 0 10 -88 149 -101 160 -3 3 -18 26 -33 53 -15 26 -31 47 -35 47
-3 0 -12 13 -19 28 -6 16 -20 37 -30 48 -23 26 -62 82 -62 89 0 3 -7 13 -16
23 -9 9 -59 76 -112 147 -52 72 -99 132 -104 133 -4 2 -8 10 -8 17 0 7 -3 15
-7 17 -5 2 -28 28 -53 58 -59 72 -62 76 -80 96 -8 10 -22 27 -30 39 -13 19
-51 65 -124 149 -10 11 -37 43 -60 69 -22 27 -52 61 -66 76 -188 205 -258 279
-391 411 -85 85 -193 190 -238 233 -45 42 -81 77 -79 78 2 0 293 2 648 3 355
2 651 4 657 4 13 2 13 28 0 49 -4 6 -3 14 2 17 10 7 9 25 -2 43 -4 6 -4 14 1
16 9 7 9 88 -1 104 -4 6 -3 14 2 17 10 7 9 25 -2 43 -4 6 -3 14 2 17 10 7 9
25 -2 43 -4 6 -3 14 2 17 10 7 9 25 -2 42 -3 6 -4 14 0 18 12 12 13 87 1 80
-7 -5 -8 -2 -3 5 13 22 15 82 3 75 -7 -5 -8 -2 -3 5 13 22 15 82 3 75 -7 -5
-8 -2 -3 5 13 22 15 82 3 75 -7 -5 -8 -2 -3 6 11 18 14 69 4 76 -5 3 -6 11 -2
17 10 16 10 97 1 104 -5 2 -5 10 -1 16 11 18 12 36 2 43 -5 3 -6 11 -2 17 11
18 12 36 2 43 -5 3 -6 11 -2 17 10 16 10 97 1 104 -5 2 -5 10 -1 16 11 18 12
36 2 43 -5 3 -6 11 -2 17 11 18 12 36 2 43 -5 3 -6 11 -2 17 11 18 12 36 2 43
-5 3 -6 11 -2 17 11 17 12 77 2 83 -5 3 -6 11 -2 17 10 16 10 97 1 104 -5 2
-5 10 -1 16 11 18 12 36 2 43 -5 3 -6 11 -2 17 11 18 12 36 2 43 -5 3 -6 11
-2 17 11 18 12 36 2 43 -5 3 -6 11 -2 17 12 19 11 78 -1 82 -27 9 -96 11 -107
4 -7 -4 -19 -3 -25 2 -7 6 -14 6 -17 2 -3 -4 -49 -6 -102 -3 -53 3 -98 3 -101
1 -4 -4 -168 -2 -199 3 -11 2 -28 -1 -37 -5 -10 -6 -19 -5 -23 1 -5 8 -11 8
-19 1 -7 -6 -15 -9 -18 -6 -3 4 -52 6 -118 5 -8 -1 -42 0 -75 0 -33 1 -64 1
-70 0 -14 -2 -98 1 -121 4 -10 2 -26 0 -35 -5 -9 -5 -20 -4 -26 2 -6 6 -13 7
-16 2 -3 -4 -49 -6 -102 -3 -53 3 -98 3 -101 1 -2 -2 -45 -3 -97 -2 l-93 2 1
-105 c1 -71 -2 -106 -9 -106 -8 0 -8 -3 0 -8 5 -4 10 -36 10 -72 l-1 -65 -916
0 c-505 0 -921 3 -924 7 -11 11 -13 78 -3 78 5 0 6 5 2 12 -4 6 -8 41 -8 77
l-1 66 -78 0 -79 0 5 32 c3 19 1 33 -4 33 -6 0 -7 6 -2 12 10 17 10 108 0 108
-5 0 -5 6 0 12 10 17 10 108 0 108 -5 0 -5 6 0 12 10 17 10 108 0 108 -5 0 -5
6 0 12 10 17 10 108 0 108 -5 0 -5 6 0 12 10 17 10 108 0 108 -5 0 -5 6 0 12
10 17 10 108 0 108 -5 0 -5 6 0 12 10 17 10 108 0 108 -5 0 -5 6 0 12 10 17
10 108 0 108 -5 0 -5 6 0 12 10 18 10 108 -1 108 -5 0 -4 6 1 13 8 10 9 39 4
90 -1 4 -485 7 -1076 7 l-1075 0 0 -364z m560 11 c0 -5 5 -5 12 -1 13 9 183 8
197 0 5 -4 12 0 15 6 5 11 7 11 12 0 3 -6 10 -10 15 -6 17 10 887 10 882 -1
-17 -30 -108 -145 -116 -145 -4 0 -6 -4 -2 -9 3 -5 -3 -16 -13 -23 -9 -7 -35
-38 -57 -68 -22 -30 -44 -60 -50 -66 -14 -16 -31 -38 -89 -114 -27 -36 -56
-71 -65 -77 -8 -7 -11 -13 -5 -13 5 0 5 -4 -1 -8 -16 -11 -98 -112 -91 -112 3
0 -11 -18 -32 -40 l-37 -40 -55 20 c-30 12 -62 24 -70 27 -8 3 -18 7 -21 7
-11 2 -78 80 -85 99 -3 9 -9 17 -13 17 -4 0 -23 21 -41 48 -19 26 -39 52 -45
58 -15 17 -35 42 -85 109 -25 33 -47 62 -50 65 -12 11 -176 223 -192 248 l-17
27 50 0 c27 0 49 -4 49 -8z m1214 -559 c-1 -183 -2 -335 -3 -338 0 -3 -40 -5
-89 -4 -68 1 -97 6 -130 23 -23 12 -42 19 -42 16 0 -4 -12 0 -27 9 -35 18 -91
42 -120 51 -30 8 -29 26 2 55 14 13 25 27 25 32 0 5 8 17 18 28 9 10 94 118
187 239 94 121 172 220 175 221 3 0 4 -150 4 -332z m-1361 310 c5 -13 131
-176 226 -293 15 -18 15 -19 0 -7 -9 6 -28 13 -43 14 -14 1 -26 5 -26 8 0 3
-11 7 -26 8 -14 1 -34 6 -44 12 -10 5 -28 10 -39 10 -12 0 -21 4 -21 9 0 4
-10 8 -22 7 -28 -1 -34 25 -32 134 3 112 3 110 13 110 5 0 11 -6 14 -12z
m-7413 -1100 l35 2 -33 -20 c-18 -11 -37 -20 -42 -20 -6 0 -10 -5 -10 -12 0
-6 -3 -8 -6 -5 -4 3 -18 -3 -32 -13 -13 -11 -34 -20 -46 -20 -12 0 -16 3 -10
8 5 4 10 24 9 45 -1 36 0 37 31 35 19 -1 36 1 40 5 4 3 12 3 18 0 5 -4 26 -6
46 -5z m9649 -3 c6 -3 11 -2 11 2 0 10 132 9 149 -1 6 -4 11 -3 11 1 0 10 132
9 149 -1 6 -4 11 -3 11 1 0 10 132 9 149 -1 6 -4 11 -3 11 1 0 10 132 9 149
-1 6 -4 11 -3 11 1 0 10 132 9 149 -1 6 -4 11 -3 11 1 0 10 132 9 149 -1 6 -4
11 -3 11 1 0 10 132 9 149 -1 6 -4 11 -4 11 1 0 4 29 8 65 8 36 0 65 -3 65 -7
0 -10 -360 -190 -360 -181 0 5 -4 3 -8 -3 -11 -17 -243 -125 -279 -131 -24 -3
-55 6 -120 38 -49 24 -90 44 -93 44 -5 1 -413 199 -439 213 -25 14 -23 29 3
27 14 -2 30 -6 35 -10z m1505 -379 c1 -202 -2 -372 -5 -378 -4 -6 -37 6 -80
28 -41 21 -77 37 -81 36 -5 -1 -8 2 -8 8 0 6 -6 10 -14 10 -8 0 -62 25 -121
55 -59 30 -114 55 -121 55 -8 0 -14 5 -14 10 0 6 -4 10 -9 10 -5 0 -81 35
-168 78 -100 48 -158 82 -155 90 2 6 8 9 13 6 6 -3 19 2 30 12 10 9 19 13 19
9 0 -4 8 -1 18 8 9 8 29 19 45 22 15 4 27 12 27 18 0 6 3 7 7 4 3 -4 15 0 25
10 10 9 18 13 18 10 0 -3 47 18 104 48 58 29 107 51 110 47 3 -3 6 0 6 7 0 7
5 9 10 6 6 -3 10 -2 10 2 0 9 59 37 73 34 4 0 7 4 7 9 0 6 9 10 19 10 11 0 21
3 23 8 2 4 37 23 78 42 41 19 78 40 82 45 5 6 8 6 8 1 0 -6 5 -5 12 2 7 7 16
11 22 9 5 -2 9 -151 10 -371z m-11696 313 c2 -5 9 -9 15 -9 7 0 46 -17 87 -37
74 -37 110 -66 110 -87 0 -6 -40 -35 -88 -65 -48 -30 -89 -58 -92 -61 -3 -4
-12 -9 -20 -13 -18 -8 -53 -30 -60 -37 -3 -3 -17 -13 -31 -22 l-26 -16 0 191
c-1 106 1 195 3 199 5 8 98 -31 102 -43z m5434 -174 c5 -6 8 -6 8 1 0 11 101
10 120 -1 6 -3 10 -2 10 4 0 6 7 8 15 4 9 -3 47 -6 85 -7 38 -1 72 -5 76 -9 9
-9 11 -136 2 -131 -4 3 -5 -2 -1 -12 9 -24 10 -66 1 -90 -4 -12 -4 -25 -1 -28
9 -9 9 -195 1 -189 -5 2 -4 -7 2 -21 12 -31 3 -38 -53 -38 -34 0 -90 23 -270
111 -125 61 -229 111 -232 111 -3 0 -22 11 -43 24 -20 12 -40 24 -45 24 -17 2
-142 66 -145 74 -2 4 -11 8 -20 8 -9 0 -23 4 -31 9 -10 7 23 28 120 76 74 37
149 73 167 79 40 14 224 15 234 1z m-487 -8 c-41 -23 -135 -66 -135 -61 0 2
-8 0 -18 -5 -14 -7 -34 -2 -81 20 -35 17 -61 32 -58 35 3 3 51 7 108 10 57 3
104 6 105 7 2 1 24 3 51 4 40 1 45 0 28 -10z m1017 -13 c7 -5 8 -2 3 6 -5 8
-4 11 2 7 10 -6 55 -12 153 -22 127 -11 176 -18 191 -26 8 -4 21 -4 29 1 8 5
19 6 25 2 5 -4 21 -7 35 -8 71 -4 148 -23 180 -43 13 -9 25 -15 27 -13 2 1 18
-5 36 -15 30 -16 30 -18 10 -21 -13 -2 -23 -8 -23 -13 0 -5 -3 -8 -7 -7 -5 1
-97 -42 -205 -96 -109 -53 -200 -97 -204 -96 -4 1 -10 -2 -13 -7 -5 -7 -141
-76 -148 -75 -1 1 -35 -16 -75 -35 -40 -20 -76 -36 -80 -35 -5 1 -8 -2 -8 -6
0 -5 -7 -9 -15 -9 -12 0 -14 16 -12 89 1 48 -2 88 -6 88 -5 0 -5 5 -2 11 10
15 11 149 2 149 -5 0 -5 5 -1 12 4 6 7 45 6 86 -1 41 1 78 3 82 6 9 81 4 97
-6z m-1480 -36 c13 -7 25 -13 28 -13 15 -4 140 -67 144 -73 2 -4 -32 -25 -77
-46 -45 -22 -144 -70 -219 -107 -76 -38 -138 -65 -138 -61 0 4 -4 2 -8 -4 -6
-9 -130 -72 -267 -135 -27 -13 -52 -25 -55 -28 -3 -3 -11 -7 -17 -9 -10 -1
-13 45 -13 208 0 161 3 210 13 211 6 0 21 2 32 4 11 2 36 6 55 9 19 2 62 9 95
15 92 15 157 24 193 24 17 0 32 3 32 7 0 4 12 6 28 5 15 -1 41 2 57 5 40 9 89
4 117 -12z m-736 -276 l-1 -187 -25 1 c-42 2 -92 15 -127 35 -19 11 -40 19
-48 19 -8 0 -15 5 -15 10 0 6 -4 10 -10 10 -5 0 -53 21 -107 47 -54 26 -101
46 -105 45 -5 -1 -8 2 -8 7 0 5 -22 17 -50 27 -27 10 -50 22 -50 26 0 4 -10 8
-22 9 -20 1 -19 2 9 14 17 8 42 16 55 19 12 3 33 7 46 10 97 24 197 48 222 53
42 8 55 11 55 13 0 3 41 10 68 12 15 0 29 4 31 7 2 3 22 7 43 8 l39 2 0 -187z
m3232 174 c5 -3 25 -6 45 -8 21 -1 37 -5 37 -8 0 -3 8 -6 18 -7 18 -2 52 -8
92 -18 14 -4 32 -8 40 -9 19 -3 66 -15 106 -27 30 -9 31 -11 30 -65 -1 -54 -1
-55 -26 -49 -14 4 -27 10 -30 14 -3 5 -22 14 -42 20 -21 7 -38 17 -38 22 0 5
-6 9 -12 9 -7 0 -65 26 -128 57 -63 31 -119 57 -124 57 -5 1 -11 6 -13 13 -4
12 26 11 45 -1z m-1998 -143 c14 -3 126 -59 131 -66 3 -5 9 -8 13 -7 4 1 55
-23 114 -52 59 -29 109 -53 112 -54 17 -3 40 -17 40 -24 0 -5 -8 -9 -17 -9
-29 -1 -52 -1 -65 0 -11 0 -752 1 -798 0 -19 0 -159 -1 -185 -1 -11 0 -51 0
-89 0 -39 0 -71 2 -73 4 -2 2 41 26 97 54 55 28 100 48 100 44 0 -4 4 -2 8 3
6 9 196 107 212 110 3 1 34 16 70 35 36 18 83 39 104 45 37 11 44 9 130 -35
50 -25 93 -46 96 -47z m1850 75 c8 -3 51 -22 95 -43 44 -22 82 -40 85 -40 15
-3 85 -41 88 -47 2 -5 8 -8 14 -8 14 0 101 -43 109 -53 3 -5 8 -8 10 -8 10 3
69 -24 69 -31 0 -4 5 -8 11 -8 12 0 38 -29 39 -42 0 -3 -69 -6 -153 -5 -84 1
-158 -2 -165 -7 -6 -4 -12 -4 -12 1 0 10 -292 9 -308 -1 -7 -4 -12 -4 -12 1 0
4 -122 8 -270 7 -149 -1 -269 0 -267 2 7 7 352 176 370 181 9 3 17 10 17 15 0
5 5 6 10 3 6 -3 10 -2 10 2 0 5 10 9 22 10 11 1 24 6 27 10 3 4 29 18 56 31
28 13 57 27 65 32 14 8 56 7 90 -2z m4015 2 c4 -6 9 -8 13 -6 4 2 39 -13 77
-35 39 -21 108 -57 155 -80 47 -23 88 -47 92 -53 4 -6 8 -8 8 -4 0 4 50 -18
112 -49 96 -49 109 -58 88 -64 -14 -3 -33 -2 -42 3 -10 5 -19 4 -23 -3 -4 -6
-14 -7 -24 -3 -9 3 -32 6 -52 5 -22 -1 -43 5 -52 14 -9 8 -18 15 -22 15 -3 0
-11 5 -18 10 -51 44 -79 65 -127 97 -30 21 -61 44 -68 50 -7 7 -17 13 -21 13
-4 0 -16 8 -27 18 -10 9 -38 30 -61 46 -24 16 -43 30 -43 32 0 9 29 3 35 -6z
m-7758 -130 c31 -16 63 -30 70 -30 7 0 13 -3 13 -7 0 -5 29 -21 65 -38 36 -16
65 -33 65 -37 0 -4 9 -8 20 -8 11 0 20 -4 20 -9 0 -5 10 -13 23 -17 20 -7 19
-9 -13 -14 -19 -3 -45 -3 -57 2 -13 4 -25 3 -28 -2 -4 -7 -13 -7 -24 0 -10 5
-21 7 -23 4 -4 -4 -78 -6 -150 -4 -10 1 -44 1 -75 1 -32 0 -65 0 -73 0 -8 1
-20 0 -25 -1 -6 -1 -118 -2 -250 -1 l-240 2 75 25 c41 13 84 29 95 34 22 10
100 38 128 45 42 12 55 15 102 31 56 18 74 23 78 23 1 1 27 9 57 19 65 23 74
22 147 -18z m8617 -458 c1 -50 -1 -92 -4 -92 -5 0 -74 57 -124 103 -17 16 -43
36 -58 45 -56 33 -43 40 75 38 l111 -1 0 -93z m-2629 -154 c3 -3 -41 -60 -105
-135 -10 -13 -15 -23 -12 -23 4 0 0 -6 -8 -13 -9 -7 -47 -52 -85 -102 -39 -49
-73 -92 -77 -93 -5 -2 -6 -8 -2 -13 3 -5 1 -9 -3 -9 -5 0 -26 -24 -48 -52 -21
-29 -44 -57 -49 -63 -6 -5 -22 -27 -36 -47 l-25 -37 -19 21 c-10 11 -35 41
-54 67 -19 25 -39 48 -44 49 -4 2 -8 9 -8 16 0 6 -9 18 -19 26 -11 7 -18 17
-15 22 3 4 -3 8 -12 8 -10 0 -15 3 -11 6 6 6 -100 146 -115 152 -4 2 -8 8 -8
13 0 6 -9 20 -21 32 -12 12 -28 33 -37 47 -9 14 -22 29 -29 33 -7 4 -13 13
-13 19 0 6 -8 18 -18 27 -11 9 -24 25 -29 36 -11 20 -8 20 444 19 250 -1 456
-4 458 -6z m-1075 -108 c11 -14 29 -36 40 -49 11 -13 20 -27 20 -30 0 -3 14
-20 30 -38 17 -18 30 -34 30 -37 0 -6 33 -47 63 -78 9 -10 17 -21 17 -24 0 -3
6 -11 13 -19 22 -23 47 -55 47 -60 0 -3 8 -14 18 -24 9 -11 22 -26 27 -33 6
-7 26 -33 45 -58 19 -25 38 -46 43 -48 4 -2 7 -10 7 -17 0 -7 3 -15 8 -17 4
-1 26 -26 48 -53 40 -48 41 -51 25 -71 -9 -11 -25 -33 -36 -48 -11 -16 -25
-33 -30 -40 -6 -6 -24 -29 -40 -51 -17 -22 -42 -53 -57 -70 -16 -16 -28 -35
-28 -42 0 -6 -4 -13 -8 -15 -7 -3 -86 -101 -152 -188 -23 -31 -62 -79 -85
-107 -5 -6 -32 -41 -60 -77 l-50 -66 -5 53 c-3 28 -3 55 0 59 3 4 3 59 0 123
-3 65 -3 118 0 120 3 2 3 128 0 280 -3 152 -3 278 0 280 3 2 3 56 0 120 -3 64
-2 119 1 121 4 2 3 20 -1 39 -4 19 -5 37 -1 39 3 2 4 42 1 89 -3 46 -3 92 -2
102 4 19 4 18 72 -65z m1316 -643 c0 -386 -3 -709 -7 -717 -6 -10 -8 -11 -9
-2 0 7 -19 36 -42 65 -24 30 -56 71 -73 92 -16 21 -36 44 -43 52 -7 7 -10 13
-5 13 4 0 3 4 -3 8 -5 4 -40 45 -78 92 -37 47 -74 93 -82 103 -8 9 -14 19 -14
22 0 3 -8 13 -17 24 -10 10 -28 31 -40 47 -12 16 -30 39 -40 51 -10 12 -27 34
-38 49 -11 15 -29 39 -40 53 -47 60 -46 56 -22 81 19 22 48 57 129 165 13 16
31 37 41 47 9 10 17 22 17 27 0 5 4 11 8 13 4 2 23 24 42 51 18 26 37 47 42
47 4 0 8 6 8 14 0 8 7 17 16 20 8 3 12 10 9 16 -3 5 -2 10 2 10 5 0 26 24 48
53 21 28 43 57 47 62 5 6 18 21 29 35 11 14 30 38 42 54 36 47 58 68 65 61 4
-4 7 -322 8 -708z m-8393 420 c19 12 36 12 43 2 4 -6 10 -6 18 0 7 6 17 6 26
1 13 -8 15 -86 15 -539 l0 -530 -30 19 c-71 45 -111 62 -153 65 -56 3 -119
-16 -169 -49 -46 -32 -55 -32 -52 -3 2 12 0 28 -4 35 -5 6 -5 12 0 12 4 0 8
16 8 35 0 19 -4 35 -10 35 -7 0 -7 3 0 8 6 4 10 83 10 200 0 121 -4 192 -10
192 -7 0 -7 3 0 8 6 4 10 21 10 37 0 17 -4 33 -10 37 -7 5 -7 8 0 8 6 0 9 52
8 139 l-1 140 96 64 c112 75 139 90 150 83 4 -3 14 -1 22 4 9 6 16 6 18 0 2
-6 9 -7 15 -3z m7748 -638 c24 -29 49 -57 54 -63 12 -13 95 -115 110 -134 6
-7 18 -22 28 -33 9 -10 17 -21 17 -24 0 -7 15 -25 48 -60 13 -14 19 -25 15
-25 -4 0 -3 -4 2 -8 18 -13 115 -141 115 -152 0 -6 5 -8 10 -5 6 3 10 -3 10
-14 0 -12 4 -21 8 -21 5 0 33 -35 62 -77 30 -43 58 -79 62 -81 4 -2 8 -7 8
-12 0 -4 20 -39 45 -77 25 -37 45 -73 45 -79 0 -6 -18 -9 -45 -8 -30 2 -43 -1
-39 -8 5 -7 2 -8 -7 -2 -20 13 -222 13 -231 0 -5 -8 -8 -8 -8 0 0 13 -209 13
-229 0 -9 -6 -12 -5 -8 1 4 6 -99 9 -278 9 -194 0 -282 -4 -277 -11 3 -6 0 -6
-9 1 -8 7 -59 11 -132 10 -66 -1 -121 2 -123 6 -7 11 19 61 61 115 22 28 51
66 65 84 14 18 46 60 72 93 27 34 51 66 56 71 51 67 77 101 82 105 4 4 52 65
112 145 4 6 24 30 43 55 20 25 43 55 53 68 9 12 26 33 37 45 11 13 25 30 30
38 35 54 72 98 81 99 6 0 31 -23 55 -51z m629 -1087 c0 -6 -73 -96 -89 -109
-8 -7 -11 -13 -7 -13 4 0 1 -6 -6 -14 -7 -8 -22 -26 -33 -40 -11 -14 -27 -35
-36 -45 -8 -11 -24 -32 -35 -46 -10 -15 -24 -32 -29 -39 -6 -6 -31 -38 -55
-71 -25 -32 -52 -67 -60 -76 -8 -10 -20 -24 -25 -31 -11 -14 -75 -97 -88 -113
-4 -5 -30 -39 -58 -75 -28 -36 -60 -77 -72 -91 -22 -26 -29 -37 -65 -90 -19
-29 -21 -28 -62 31 -14 19 -32 42 -40 50 -8 9 -24 28 -35 44 -11 15 -27 36
-35 46 -36 43 -47 58 -75 95 -16 22 -34 45 -40 52 -5 6 -21 26 -35 44 -14 18
-29 37 -35 43 -5 6 -53 67 -105 136 -51 69 -97 127 -100 130 -3 3 -19 23 -36
45 -16 22 -33 45 -39 51 -27 31 -44 54 -53 71 -10 18 13 18 669 18 373 0 679
-1 679 -3z m15 -1032 c0 -401 -2 -730 -5 -730 -3 0 -11 9 -17 19 -10 16 -157
207 -216 281 -7 8 -26 33 -42 55 -16 22 -32 42 -35 45 -3 3 -21 25 -40 50 -19
25 -37 47 -40 50 -3 3 -18 23 -35 45 -16 22 -32 42 -35 45 -15 13 -100 133
-100 142 0 5 6 15 13 22 6 7 23 28 37 46 14 18 38 49 53 69 43 54 67 85 169
216 51 66 96 125 100 130 27 33 51 64 118 149 41 53 74 96 75 96 0 0 0 -328 0
-730z m-1270 578 c55 -72 112 -145 127 -162 15 -17 28 -34 28 -37 0 -3 10 -17
23 -31 12 -14 58 -72 102 -129 44 -57 83 -108 87 -114 5 -5 22 -26 38 -45 47
-55 46 -64 -7 -132 -26 -34 -55 -71 -63 -82 -8 -11 -25 -30 -37 -43 -13 -13
-23 -28 -23 -32 0 -4 -10 -19 -22 -33 -13 -14 -34 -40 -48 -58 -22 -28 -39
-49 -68 -85 -4 -5 -21 -28 -37 -50 -17 -22 -32 -42 -35 -45 -4 -3 -19 -23 -36
-45 -16 -22 -33 -45 -39 -52 -5 -6 -19 -23 -30 -37 -11 -15 -26 -33 -32 -41
-7 -7 -13 -18 -13 -23 0 -6 -6 -12 -14 -15 -12 -5 -15 13 -18 100 -2 58 -1
106 2 108 3 2 3 56 0 120 -3 64 -3 118 0 120 3 2 3 92 0 200 -3 108 -3 198 0
200 3 2 3 56 0 120 -3 64 -4 118 -2 120 6 6 3 316 -3 325 -4 6 0 10 7 10 7 -1
58 -60 113 -132z m632 -811 c18 -23 47 -59 65 -79 33 -36 49 -56 91 -112 12
-15 30 -36 40 -44 9 -9 17 -22 17 -28 0 -7 4 -14 8 -16 12 -5 202 -257 202
-269 0 -5 5 -9 10 -9 6 0 10 -7 10 -15 0 -9 6 -18 14 -21 7 -3 22 -21 32 -40
10 -19 22 -34 26 -34 5 0 8 -7 8 -15 0 -8 5 -15 10 -15 6 0 10 -5 10 -12 0 -6
7 -19 15 -28 22 -24 86 -132 74 -125 -5 4 -9 3 -9 -2 0 -4 -310 -8 -689 -8
l-689 0 5 25 c2 14 12 36 21 49 9 13 22 31 27 40 6 9 20 26 32 37 12 12 19 25
16 28 -3 3 2 8 11 12 9 3 16 11 16 16 0 6 10 19 22 29 11 11 17 19 13 19 -4 0
3 11 16 24 32 32 49 54 49 62 0 4 11 17 26 30 14 13 23 24 20 24 -6 0 2 10 52
68 12 15 35 45 50 67 15 22 35 47 44 56 10 9 18 19 18 23 0 4 13 21 30 39 16
18 30 35 30 40 0 4 8 15 18 25 9 10 44 53 77 97 33 44 63 82 68 83 4 2 7 10 7
18 0 9 5 12 10 9 6 -3 10 -1 10 4 0 18 32 -7 67 -52z m623 -1084 c0 -4 -85
-117 -105 -139 -5 -7 -19 -24 -30 -40 -11 -15 -48 -63 -82 -105 -35 -43 -63
-83 -63 -89 0 -5 -3 -10 -8 -10 -4 0 -32 -33 -61 -72 -30 -40 -60 -77 -66 -83
-6 -5 -22 -26 -35 -45 -13 -19 -27 -37 -30 -40 -3 -3 -19 -23 -35 -45 -46 -62
-109 -140 -117 -143 -5 -2 -8 -8 -8 -13 0 -6 -9 -19 -20 -31 -20 -22 -20 -22
-37 -2 -10 10 -38 46 -63 79 -64 86 -124 159 -132 163 -5 2 -8 8 -8 14 0 5 -6
15 -12 22 -7 7 -24 28 -38 46 -14 18 -31 39 -37 46 -7 7 -13 17 -13 22 0 6 -4
12 -8 14 -5 2 -37 41 -73 86 -85 112 -131 170 -211 273 -38 48 -68 89 -68 91
0 3 306 5 680 5 374 1 680 -1 680 -4z m-1313 -385 c31 -40 62 -79 68 -86 5 -7
18 -22 28 -33 9 -10 17 -22 17 -25 0 -3 6 -11 13 -18 6 -8 46 -58 87 -111 41
-54 85 -109 98 -122 12 -13 22 -28 22 -33 0 -4 3 -10 8 -12 4 -1 21 -21 38
-43 17 -22 53 -70 82 -106 l51 -66 -34 -37 c-18 -20 -34 -40 -35 -44 -1 -6
-95 -128 -128 -168 -5 -5 -56 -71 -113 -145 -57 -74 -106 -136 -109 -139 -3
-3 -19 -23 -36 -45 -16 -22 -33 -45 -39 -52 -25 -30 -55 -69 -67 -86 -11 -14
-13 34 -12 271 0 158 4 293 8 300 4 7 4 12 -1 12 -4 0 -8 194 -8 430 0 237 1
430 2 430 1 0 28 -33 60 -72z m1328 -653 c1 -399 -2 -725 -5 -725 -3 0 -16 16
-30 36 -14 19 -30 41 -35 47 -14 16 -54 68 -85 107 -14 18 -38 49 -55 69 -16
21 -39 50 -50 66 -11 15 -27 35 -35 44 -8 9 -26 32 -40 51 -14 19 -30 42 -37
50 -7 8 -42 53 -79 100 -36 47 -70 87 -75 88 -5 2 -9 10 -9 18 0 8 -4 14 -9
14 -5 0 -13 9 -16 20 -7 21 8 46 85 139 11 13 35 44 53 68 17 25 44 58 59 74
15 16 24 29 20 29 -4 0 -2 4 3 8 6 4 26 27 45 52 19 25 39 50 45 56 5 7 19 24
30 40 43 59 214 274 218 274 1 0 2 -326 2 -725z m-634 -236 c30 -34 63 -73 74
-87 11 -14 28 -34 38 -44 9 -10 17 -22 17 -28 0 -5 6 -13 13 -17 6 -4 32 -35
57 -68 25 -33 47 -62 50 -65 3 -3 17 -21 30 -40 14 -19 32 -42 40 -52 31 -34
40 -47 40 -58 0 -5 4 -10 8 -10 4 0 16 -13 25 -30 10 -16 23 -35 30 -42 7 -7
28 -35 47 -63 19 -27 37 -51 42 -53 4 -2 8 -8 8 -14 0 -6 14 -27 30 -48 17
-21 30 -40 30 -43 0 -4 11 -23 25 -43 32 -47 31 -56 -2 -54 -16 1 -32 1 -38 0
-35 -6 -185 -4 -185 3 0 5 -5 5 -11 2 -15 -10 -269 -11 -269 -2 0 5 -5 5 -11
1 -16 -9 -109 -11 -109 -1 0 5 -5 5 -11 2 -15 -10 -149 -11 -149 -2 0 5 -5 5
-10 2 -16 -10 -190 -11 -190 -2 0 5 -5 5 -11 1 -16 -10 -189 -11 -189 -1 0 5
-5 5 -11 1 -14 -8 -107 -9 -116 -1 -3 4 -14 2 -24 -3 -12 -7 -20 -7 -24 1 -8
12 45 120 55 114 5 -3 10 1 13 9 9 22 130 176 139 176 4 0 8 6 8 13 0 7 8 22
18 33 9 10 33 39 52 64 19 25 39 50 45 57 5 6 21 26 35 44 14 18 45 58 70 90
25 31 90 116 145 187 55 72 105 131 111 131 6 1 35 -26 65 -60z m-211 -1069
c3 -1 10 -1 15 0 24 6 252 5 271 -1 12 -4 25 -5 28 -1 11 10 56 10 56 0 0 -5
5 -6 12 -2 16 10 369 11 375 1 2 -4 9 -5 14 -1 16 9 59 15 59 7 0 -13 -52 -83
-62 -83 -5 0 -7 -4 -4 -9 4 -5 3 -11 -1 -13 -5 -1 -30 -32 -58 -67 -27 -35
-57 -71 -65 -81 -8 -9 -19 -24 -25 -32 -16 -25 -177 -232 -189 -243 -6 -5 -27
-32 -46 -60 -19 -27 -39 -54 -45 -60 -6 -5 -31 -37 -56 -70 -24 -33 -46 -62
-50 -65 -3 -3 -21 -27 -41 -53 l-36 -48 -46 58 c-25 32 -50 63 -54 68 -62 81
-108 141 -113 145 -3 3 -25 32 -50 65 -24 33 -48 65 -54 71 -22 26 -45 55
-100 128 -32 42 -61 76 -66 76 -4 0 -11 9 -14 20 -4 11 -20 35 -36 53 -17 17
-37 44 -45 60 -8 15 -18 27 -22 27 -4 0 -20 20 -37 45 -16 24 -33 45 -37 45
-5 0 -8 6 -8 13 0 9 58 12 262 10 145 0 265 -2 268 -3z m-470 -400 c32 -47
143 -185 151 -188 5 -2 9 -8 9 -13 0 -9 10 -22 62 -82 15 -18 28 -35 28 -38 0
-4 16 -24 35 -45 19 -22 35 -42 35 -45 0 -4 11 -19 25 -35 14 -16 54 -65 89
-110 l64 -81 -26 -34 c-15 -19 -30 -35 -34 -37 -5 -2 -8 -10 -8 -18 0 -8 -4
-14 -8 -14 -5 0 -24 -21 -42 -47 -19 -27 -39 -53 -45 -59 -24 -27 -45 -55 -45
-60 0 -3 -6 -11 -12 -19 -7 -7 -22 -25 -33 -39 -11 -14 -28 -36 -39 -48 -10
-13 -46 -59 -79 -103 -76 -99 -79 -103 -97 -124 -8 -9 -28 -35 -45 -56 -67
-90 -61 -152 -61 656 l0 730 31 -34 c16 -19 37 -45 45 -57z m1315 -640 c0
-396 -2 -720 -5 -720 -7 0 -70 77 -70 86 0 4 -6 12 -13 18 -8 6 -45 52 -83
101 -38 50 -71 92 -74 95 -3 3 -25 32 -50 65 -25 33 -48 62 -52 63 -5 2 -8 8
-8 13 0 6 -12 21 -26 34 -15 14 -24 25 -20 25 4 0 -3 10 -14 23 -12 12 -42 50
-67 85 -25 34 -50 62 -54 62 -4 0 -11 16 -15 35 -5 30 -1 40 32 82 22 26 45
54 52 61 6 7 12 16 12 20 0 4 13 22 28 40 15 17 35 42 44 55 10 12 56 72 103
132 47 61 93 120 103 133 9 13 25 32 35 43 9 10 17 22 17 25 0 3 7 13 16 21 9
9 34 40 56 70 22 29 43 53 47 53 3 0 6 -324 6 -720z m-647 -220 c26 -27 52
-55 57 -62 6 -7 50 -62 98 -123 49 -60 95 -118 103 -128 8 -9 14 -21 14 -26 0
-5 4 -11 9 -13 5 -1 50 -59 100 -128 50 -69 94 -130 99 -136 23 -26 132 -196
132 -205 0 -5 5 -9 11 -9 5 0 8 -4 4 -9 -3 -5 -1 -12 5 -16 5 -3 10 -12 10
-18 0 -9 -28 -12 -95 -12 -57 0 -95 4 -95 10 0 7 -3 7 -8 0 -10 -14 -252 -14
-252 0 0 7 -3 7 -8 0 -4 -6 -53 -11 -117 -11 -64 0 -113 5 -117 11 -5 6 -8 7
-8 0 0 -14 -230 -14 -230 0 0 7 -3 6 -8 0 -4 -6 -53 -11 -117 -11 -64 0 -113
5 -117 11 -5 7 -8 7 -8 0 0 -12 -194 -14 -206 -3 -3 4 -3 15 1 25 5 10 8 21 7
24 -1 5 281 373 324 421 13 15 24 32 24 37 0 5 3 11 8 13 4 2 23 23 42 48 19
25 39 50 45 56 5 6 19 23 30 39 27 38 147 189 155 195 4 3 15 20 25 38 11 17
23 32 28 32 4 0 29 -22 55 -50z m-415 -1085 c48 0 87 4 87 8 0 5 5 5 12 1 19
-12 588 -11 588 1 0 7 3 7 8 0 8 -11 330 -13 349 -2 19 12 9 -16 -20 -53 -84
-108 -162 -209 -181 -233 -11 -16 -26 -34 -31 -40 -6 -7 -24 -30 -40 -52 -17
-22 -32 -42 -35 -45 -10 -9 -55 -66 -75 -94 -18 -25 -121 -158 -176 -226 -11
-14 -41 -53 -67 -87 -25 -35 -48 -63 -51 -63 -3 0 -16 15 -28 33 -12 17 -33
43 -46 57 -12 14 -33 41 -47 60 -13 19 -30 42 -37 50 -7 8 -27 33 -44 55 -16
22 -35 47 -42 55 -24 29 -192 245 -222 285 -16 22 -35 46 -42 53 -7 7 -27 33
-44 57 -18 25 -36 45 -41 45 -4 0 -8 7 -8 15 0 8 -5 15 -12 15 -6 0 -9 3 -6 6
4 3 -6 18 -21 32 -16 15 -33 36 -39 48 -11 20 -9 21 99 20 66 -1 109 3 109 9
0 7 3 7 8 0 4 -5 46 -10 95 -10z m-281 -375 c18 -27 39 -50 46 -50 6 0 11 -3
10 -7 -3 -10 74 -113 84 -113 4 0 8 -5 8 -11 0 -6 12 -26 28 -44 15 -18 36
-45 47 -60 11 -16 25 -33 30 -39 9 -9 38 -46 88 -111 73 -96 93 -121 99 -123
5 -2 8 -10 8 -17 0 -7 4 -15 10 -17 5 -1 22 -21 38 -42 l30 -40 -57 -70 c-31
-39 -60 -77 -66 -84 -5 -7 -18 -22 -27 -33 -10 -10 -18 -23 -18 -29 0 -12 -41
-35 -55 -31 -16 4 -97 14 -122 15 -13 0 -23 2 -23 6 0 3 -19 6 -43 6 -57 2
-149 12 -155 18 -9 9 -8 101 1 114 5 6 6 12 1 12 -11 0 -11 451 0 468 4 7 4
12 -1 12 -4 0 -8 72 -8 160 0 88 3 160 7 160 5 0 23 -22 40 -50z m1342 -513
c-2 -628 -1 -590 -13 -583 -4 3 -26 8 -47 11 -50 8 -80 12 -124 20 -19 4 -46
8 -59 10 -30 5 -55 32 -166 175 -48 63 -95 121 -104 128 -8 6 -12 12 -8 12 6
0 -15 30 -39 54 -9 8 -4 22 19 54 17 23 34 42 39 42 5 0 7 4 4 9 -4 5 -2 11 2
13 5 1 33 35 62 73 30 39 57 72 60 75 3 3 32 41 65 84 33 44 70 91 83 105 12
13 32 39 43 58 11 18 25 33 30 33 5 0 9 6 9 14 0 8 7 17 16 20 8 3 12 10 9 16
-3 5 -2 10 2 10 8 0 31 28 87 104 10 14 22 26 25 26 3 0 5 -253 5 -563z
m-7393 369 c22 -1 39 3 39 8 0 5 6 3 14 -3 11 -9 20 -9 34 -2 11 6 22 8 24 5
11 -11 88 -11 88 0 0 7 3 7 8 1 10 -14 225 -14 234 0 5 6 8 6 8 0 0 -12 179
-14 197 -2 6 4 14 3 17 -2 7 -10 25 -9 44 2 6 5 12 4 12 0 0 -5 16 -8 35 -8
19 0 35 4 35 8 0 5 5 5 12 1 15 -10 111 -9 127 0 6 4 11 3 11 -2 0 -9 36 -10
45 0 10 10 55 -16 61 -36 10 -29 11 -107 2 -112 -5 -3 -5 -10 -2 -16 10 -16
11 -100 2 -120 -4 -9 -4 -19 1 -22 9 -6 7 -48 -3 -65 -4 -5 -2 -12 2 -15 10
-6 8 -48 -2 -65 -4 -5 -2 -12 2 -15 10 -6 8 -48 -2 -65 -4 -5 -2 -12 2 -15 10
-6 8 -48 -2 -65 -4 -5 -1 -13 5 -17 8 -4 7 -9 -2 -15 -9 -6 -10 -9 -2 -9 10 0
8 -58 -2 -68 -2 -2 -32 -5 -67 -7 -78 -5 -193 -14 -193 -15 0 -1 -20 -3 -45
-5 -47 -3 -109 -11 -170 -19 -19 -3 -60 -8 -90 -11 -30 -4 -68 -9 -85 -11 -16
-2 -50 -7 -75 -10 -66 -8 -90 -11 -137 -18 -24 -3 -62 -9 -85 -12 -76 -11 -83
-12 -113 -17 -16 -3 -50 -8 -75 -11 l-45 -6 0 338 c0 213 -4 340 -10 344 -7 5
-7 8 0 8 6 0 9 23 8 52 -3 85 17 117 70 109 4 0 7 4 7 10 0 5 5 7 11 3 7 -4
29 -7 50 -8z m1429 4 c7 4 23 5 34 2 27 -9 68 -8 84 2 7 4 12 2 12 -4 0 -8 6
-8 20 0 11 6 20 7 20 3 0 -11 151 -10 167 0 6 4 14 3 17 -2 7 -10 25 -9 44 2
6 5 12 4 12 -1 0 -12 63 -9 72 3 5 7 8 6 8 -1 0 -11 229 -12 247 -1 5 3 15 2
23 -3 8 -5 22 -5 32 1 10 5 18 6 18 1 0 -10 30 -9 48 2 7 4 12 2 12 -5 0 -8 4
-8 15 1 8 7 15 8 15 3 0 -5 19 -8 41 -7 23 1 50 -1 60 -3 24 -7 36 -52 34
-133 0 -36 4 -71 10 -79 8 -12 7 -13 -5 -6 -13 8 -13 7 -1 -8 7 -9 9 -17 5
-17 -5 0 -9 -79 -9 -176 0 -107 -4 -178 -10 -182 -5 -4 -53 -7 -105 -9 -52 -1
-95 -2 -95 -3 0 -1 -29 -3 -65 -5 -36 -2 -96 -6 -135 -10 -38 -3 -92 -8 -120
-10 -53 -4 -108 -9 -240 -20 -44 -4 -100 -9 -125 -10 -25 -2 -45 -4 -45 -5 0
-1 -27 -3 -60 -5 -33 -2 -88 -6 -122 -9 -42 -3 -63 -1 -65 7 -2 7 -3 155 -3
329 1 352 1 351 67 356 17 2 34 5 36 7 3 2 12 0 21 -5 10 -5 23 -5 31 0z
m5340 -780 c19 -25 40 -51 47 -58 18 -19 16 -21 -14 -17 -16 2 -28 4 -28 5 0
1 -11 3 -25 5 -14 2 -38 6 -55 10 -16 3 -43 8 -60 10 -16 1 -31 3 -33 4 -4 1
45 68 71 95 9 11 17 25 17 30 0 12 30 -19 80 -84z"/>
</g>
</svg>
